<svg xmlns="http://www.w3.org/2000/svg" viewBox="0 0 61 61"><defs><style>.cls-1{fill:#051b26;}.cls-2{fill:#e4ebed;}</style></defs><title>bh-icon</title><g id="Camada_2" data-name="Camada 2"><g id="Prancheta_II" data-name="Prancheta II"><circle class="cls-1" cx="30.5" cy="30.5" r="30.5"/><path class="cls-2" d="M27.68,29.57a4.26,4.26,0,0,1,2.44,1.64A4.84,4.84,0,0,1,31,34.1,4.49,4.49,0,0,1,29,38a7,7,0,0,1-4.33,1.26H16V21.41H24.4a7.5,7.5,0,0,1,4,.9,3.92,3.92,0,0,1,1.67,3.58A3.85,3.85,0,0,1,27.68,29.57Zm-7.76-5.09v4.18h4a2.64,2.64,0,0,0,1.74-.53,2,2,0,0,0,.63-1.64q0-2-2.67-2ZM24.1,36.27c1.95,0,2.92-.79,2.92-2.37s-.94-2.57-2.82-2.57H19.92v4.94ZM45,33l0,.66H35.64a3.43,3.43,0,0,0,.83,2.47,3.1,3.1,0,0,0,2.34.85,3.58,3.58,0,0,0,1.74-.45,2.11,2.11,0,0,0,1.08-1.26h3.13a5.8,5.8,0,0,1-6,4.33,6.36,6.36,0,0,1-4.81-1.86,6.77,6.77,0,0,1-1.79-4.89,7.32,7.32,0,0,1,.83-3.47,6.27,6.27,0,0,1,2.35-2.47A6.46,6.46,0,0,1,38.71,26a5.86,5.86,0,0,1,4.69,2.07A7.53,7.53,0,0,1,45,33Zm-2.82-8.86V22.36H34.93v1.77Zm-6.55,7.3h5.79a3.21,3.21,0,0,0-.8-2,2.64,2.64,0,0,0-2-.73,2.89,2.89,0,0,0-2.09.76A3,3,0,0,0,35.64,31.43Z"/></g></g></svg>