<svg xmlns="http://www.w3.org/2000/svg" viewBox="0 0 40 40"><defs><style>.cls-1,.cls-2{fill:#fff;}.cls-1{opacity:0.05;}</style></defs><title>behance-mdesk</title><g id="Camada_2" data-name="Camada 2"><g id="Prancheta_II" data-name="Prancheta II"><circle class="cls-1" cx="20" cy="20" r="20"/><path class="cls-2" d="M18.09,19.37a2.82,2.82,0,0,1,1.65,1.11,3.29,3.29,0,0,1,.57,2A3.08,3.08,0,0,1,19,25.11,4.77,4.77,0,0,1,16,26H10.16V13.84h5.71a5.07,5.07,0,0,1,2.73.61,2.66,2.66,0,0,1,1.13,2.43A2.62,2.62,0,0,1,18.09,19.37Zm-5.26-3.45v2.83h2.7a1.74,1.74,0,0,0,1.17-.36,1.33,1.33,0,0,0,.43-1.11c0-.91-.6-1.36-1.81-1.36Zm2.83,8c1.32,0,2-.53,2-1.6s-.63-1.75-1.91-1.75h-2.9v3.35Zm14.18-2.22,0,.44H23.48a2.31,2.31,0,0,0,.57,1.68,2.08,2.08,0,0,0,1.59.58,2.33,2.33,0,0,0,1.17-.31,1.46,1.46,0,0,0,.74-.85h2.12a3.93,3.93,0,0,1-4.1,2.93,4.29,4.29,0,0,1-3.26-1.26,4.58,4.58,0,0,1-1.22-3.31,4.9,4.9,0,0,1,.57-2.36,4.23,4.23,0,0,1,1.58-1.67,4.46,4.46,0,0,1,2.33-.62,4,4,0,0,1,3.17,1.4A5.12,5.12,0,0,1,29.84,21.69Zm-1.92-6v-1.2H23v1.2Zm-4.44,4.95h3.93a2.12,2.12,0,0,0-.55-1.38,1.76,1.76,0,0,0-1.34-.5,2,2,0,0,0-1.42.52A2,2,0,0,0,23.48,20.63Z"/></g></g></svg>