<svg xmlns="http://www.w3.org/2000/svg" viewBox="0 0 32.32 32.32"><defs><style>.cls-1{fill:#b4c6cc;}.cls-2{fill:#fff;}</style></defs><title>behance-i</title><g id="Camada_2" data-name="Camada 2"><g id="Camada_1-2" data-name="Camada 1"><circle class="cls-1" cx="16.16" cy="16.16" r="16.16"/><path class="cls-2" d="M14.48,15.6a2.65,2.65,0,0,1,1.46,1,2.94,2.94,0,0,1,.49,1.73,2.7,2.7,0,0,1-1.17,2.35,4.17,4.17,0,0,1-2.59.75H7.5V10.73h5a4.45,4.45,0,0,1,2.41.55,2.33,2.33,0,0,1,1,2.13A2.29,2.29,0,0,1,14.48,15.6Zm-4.63-3v2.49h2.37a1.57,1.57,0,0,0,1-.31,1.22,1.22,0,0,0,.38-1c0-.8-.54-1.2-1.6-1.2Zm2.49,7c1.17,0,1.75-.47,1.75-1.41s-.56-1.53-1.69-1.53H9.85V19.6Zm12.48-2,0,.39H19.23a2,2,0,0,0,.49,1.47,1.87,1.87,0,0,0,1.4.51,2.15,2.15,0,0,0,1-.27A1.27,1.27,0,0,0,22.8,19h1.87a3.46,3.46,0,0,1-3.61,2.59,3.77,3.77,0,0,1-2.87-1.12,4,4,0,0,1-1.07-2.91,4.41,4.41,0,0,1,.5-2.08A3.73,3.73,0,0,1,19,14a3.89,3.89,0,0,1,2-.54,3.51,3.51,0,0,1,2.8,1.23A4.51,4.51,0,0,1,24.82,17.65Zm-1.68-5.29v-1H18.81v1Zm-3.91,4.36h3.45a1.91,1.91,0,0,0-.48-1.22A1.56,1.56,0,0,0,21,15.06a1.74,1.74,0,0,0-1.25.45A1.82,1.82,0,0,0,19.23,16.72Z"/></g></g></svg>