<svg xmlns="http://www.w3.org/2000/svg" viewBox="0 0 20.25 12.94"><defs><style>.cls-1{fill:#1b89cc;}</style></defs><title>bfr-p</title><g id="Camada_2" data-name="Camada 2"><g id="Prancheta_I" data-name="Prancheta I"><path class="cls-1" d="M20,5.63a1.46,1.46,0,0,1,.25.84,1.5,1.5,0,0,1-.25.84,11.17,11.17,0,0,1-4.11,4.08,11.21,11.21,0,0,1-5.76,1.55,11.22,11.22,0,0,1-5.77-1.55A11.25,11.25,0,0,1,.25,7.31,1.5,1.5,0,0,1,0,6.47a1.46,1.46,0,0,1,.25-.84A11.1,11.1,0,0,1,4.36,1.55,11.22,11.22,0,0,1,10.13,0a11.21,11.21,0,0,1,5.76,1.55A11,11,0,0,1,20,5.63Zm-9.87,5.62a4.64,4.64,0,0,0,2.39-.65,5,5,0,0,0,1.74-1.74,4.61,4.61,0,0,0,.65-2.39,4.59,4.59,0,0,0-.65-2.39,5,5,0,0,0-1.74-1.74,4.54,4.54,0,0,0-2.39-.65,4.55,4.55,0,0,0-2.4.65A5,5,0,0,0,6,4.08a4.59,4.59,0,0,0-.65,2.39A4.61,4.61,0,0,0,6,8.86,5,5,0,0,0,7.73,10.6,4.65,4.65,0,0,0,10.13,11.25Zm3.65-4.78a3.65,3.65,0,0,0-3.65-3.66,3.71,3.71,0,0,0-1.73.42,1.46,1.46,0,0,1,1.07.44,1.45,1.45,0,0,1,.44,1.08,1.43,1.43,0,0,1-.44,1.07A1.51,1.51,0,0,1,6.89,4.75a3.67,3.67,0,0,0-.42,1.72A3.52,3.52,0,0,0,7.54,9.05a3.63,3.63,0,0,0,5.17,0A3.52,3.52,0,0,0,13.78,6.47Z"/></g></g></svg>