<svg xmlns="http://www.w3.org/2000/svg" viewBox="0 0 120 90"><defs><style>.cls-1{fill:#f9f9f9;}</style></defs><title>email-f</title><g id="Camada_2" data-name="Camada 2"><g id="Prancheta_I" data-name="Prancheta I"><g id="_Grupo_" data-name="&lt;Grupo&gt;"><path class="cls-1" d="M120,11.25v67.5A11.2,11.2,0,0,1,108.76,90H11.25a10.8,10.8,0,0,1-8-3.28,10.86,10.86,0,0,1-3.29-8V11.25a10.85,10.85,0,0,1,3.29-8,10.8,10.8,0,0,1,8-3.28h97.51a10.83,10.83,0,0,1,8,3.28A10.84,10.84,0,0,1,120,11.25Zm-11.24,67.5V35.15L81.56,56.72a67.41,67.41,0,0,1-9.61,7A23.57,23.57,0,0,1,60,67.5q-5.62,0-12.19-3.75a94.56,94.56,0,0,1-9.61-7L11.25,35.15v43.6Zm0-57.89V11.25H11.25v9.61q8.2,6.56,31.64,24.84L45,47.57a57.92,57.92,0,0,0,7.5,5.64q4.45,3,7.5,3c2,0,4.54-1,7.5-3A57.92,57.92,0,0,0,75,47.57l2.11-1.87Q100.54,27.66,108.76,20.86Z"/></g></g></g></svg>