<svg xmlns="http://www.w3.org/2000/svg" viewBox="0 0 120 120"><defs><style>.cls-1{fill:#fff;opacity:0.05;}.cls-2{fill:#f9f9f9;}</style></defs><title>email-f_1</title><g id="Camada_2" data-name="Camada 2"><g id="Prancheta_I" data-name="Prancheta I"><circle class="cls-1" cx="60" cy="60" r="60"/><g id="_Grupo_" data-name="&lt;Grupo&gt;"><path class="cls-2" d="M87.5,44.53V75.47a5.12,5.12,0,0,1-5.15,5.15H37.66a5.14,5.14,0,0,1-5.16-5.15V44.53a5.14,5.14,0,0,1,5.16-5.15H82.35a5.12,5.12,0,0,1,5.15,5.15ZM82.35,75.47v-20L69.88,65.37a31.83,31.83,0,0,1-4.4,3.23A10.85,10.85,0,0,1,60,70.31a11.45,11.45,0,0,1-5.59-1.71A44.54,44.54,0,0,1,50,65.37L37.66,55.49v20Zm0-26.53V44.53H37.66v4.41q3.75,3,14.5,11.38l1,.86a25.79,25.79,0,0,0,3.43,2.58A6.56,6.56,0,0,0,60,65.16a6.56,6.56,0,0,0,3.44-1.4,26.42,26.42,0,0,0,3.44-2.58l1-.86Q78.58,52.06,82.35,48.94Z"/></g></g></g></svg>