<svg xmlns="http://www.w3.org/2000/svg" viewBox="0 0 40 40"><defs><style>.cls-1,.cls-2{fill:#fff;}.cls-1{opacity:0.05;}</style></defs><title>insta-mdesk</title><g id="Camada_2" data-name="Camada 2"><g id="Prancheta_II" data-name="Prancheta II"><circle class="cls-1" cx="20" cy="20" r="20"/><path class="cls-2" d="M29.79,15.92c0,.82.05,2.18.05,4.08s0,3.27-.07,4.11a8.37,8.37,0,0,1-.37,2.17,5.16,5.16,0,0,1-3.12,3.12,8.37,8.37,0,0,1-2.17.37c-.84,0-2.21.07-4.11.07s-3.27,0-4.11-.07a6.91,6.91,0,0,1-2.17-.42,4.65,4.65,0,0,1-1.91-1.16,5.23,5.23,0,0,1-1.21-1.91,8.37,8.37,0,0,1-.37-2.17c0-.84-.07-2.21-.07-4.11s0-3.27.07-4.11a8.37,8.37,0,0,1,.37-2.17,5.16,5.16,0,0,1,3.12-3.12,8.37,8.37,0,0,1,2.17-.37c.84,0,2.21-.07,4.11-.07s3.27,0,4.11.07a8.37,8.37,0,0,1,2.17.37,5.16,5.16,0,0,1,3.12,3.12A9.34,9.34,0,0,1,29.79,15.92ZM27.68,25.8A9.07,9.07,0,0,0,28,23.43c0-.65,0-1.56,0-2.73V19.3c0-1.2,0-2.11,0-2.73a8.63,8.63,0,0,0-.36-2.37,3.18,3.18,0,0,0-1.88-1.88A8.63,8.63,0,0,0,23.43,12c-.65,0-1.56,0-2.73,0H19.3c-1.17,0-2.08,0-2.73,0a9.07,9.07,0,0,0-2.37.36,3.18,3.18,0,0,0-1.88,1.88A8.63,8.63,0,0,0,12,16.57c0,.65,0,1.56,0,2.73v1.4c0,1.17,0,2.08,0,2.73a9.07,9.07,0,0,0,.36,2.37,3.34,3.34,0,0,0,1.88,1.88,9.07,9.07,0,0,0,2.37.36c.65,0,1.56,0,2.73,0h1.4c1.2,0,2.11,0,2.73,0a8.63,8.63,0,0,0,2.37-.36A3.34,3.34,0,0,0,27.68,25.8ZM20,15a4.91,4.91,0,0,1,2.52.68,5,5,0,0,1,1.85,1.85,5,5,0,0,1,0,5,5,5,0,0,1-1.85,1.85,5,5,0,0,1-5,0,5,5,0,0,1-1.85-1.85,5,5,0,0,1,0-5,5,5,0,0,1,1.85-1.85A4.91,4.91,0,0,1,20,15Zm0,8.34a3.28,3.28,0,1,0-2.33-1A3.19,3.19,0,0,0,20,23.29Zm6.45-8.56a1.17,1.17,0,1,0-1.18,1.19,1.06,1.06,0,0,0,.81-.36A1.3,1.3,0,0,0,26.45,14.73Z"/></g></g></svg>