<svg xmlns="http://www.w3.org/2000/svg" viewBox="0 0 92.51 120"><defs><style>.cls-1{fill:#f9f9f9;}</style></defs><title>local-f</title><g id="Camada_2" data-name="Camada 2"><g id="Prancheta_I" data-name="Prancheta I"><path class="cls-1" d="M46.26,120a10,10,0,0,1-8.42-4.29c-3.71-5.43-8.54-12.34-14.37-20.6l0,0c-7.15-10.31-12-17.37-14.27-21A64.53,64.53,0,0,1,2,60,44,44,0,0,1,0,46.26,44.94,44.94,0,0,1,6.28,23.08,47.23,47.23,0,0,1,23.09,6.28,44.91,44.91,0,0,1,46.26,0,44.93,44.93,0,0,1,69.43,6.28a47.15,47.15,0,0,1,16.8,16.81,44.88,44.88,0,0,1,6.28,23.17,44.35,44.35,0,0,1-2,13.69,65,65,0,0,1-7.2,14.14c-2.32,3.62-7.12,10.68-14.28,21L54.68,115.7A10,10,0,0,1,46.26,120Zm-.18-10.07h.36l14.38-20.6c7.07-10.19,11.81-17.15,14.06-20.66A56.39,56.39,0,0,0,81,56.83a34.46,34.46,0,0,0,1.47-10.57A34.52,34.52,0,0,0,77.57,28.2,37.19,37.19,0,0,0,64.31,14.94a34.57,34.57,0,0,0-18.05-4.88A34.6,34.6,0,0,0,28.2,14.94,37.27,37.27,0,0,0,14.94,28.2a34.6,34.6,0,0,0-4.88,18.06,34.16,34.16,0,0,0,1.47,10.57,55.91,55.91,0,0,0,6.11,11.84c2.25,3.51,7,10.46,14.05,20.65C37.53,97.59,42.37,104.52,46.08,109.93Zm.18-41.47a22.24,22.24,0,0,1-22.21-22.2,21.45,21.45,0,0,1,6.52-15.69,21.45,21.45,0,0,1,15.69-6.52,22.24,22.24,0,0,1,22.2,22.21A21.51,21.51,0,0,1,62,62h0A21.47,21.47,0,0,1,46.26,68.46Zm0-34.35a11.44,11.44,0,0,0-8.58,3.57,12.08,12.08,0,0,0,0,17.15,11.45,11.45,0,0,0,8.58,3.58,11.43,11.43,0,0,0,8.57-3.58h0a12.06,12.06,0,0,0,0-17.15A11.42,11.42,0,0,0,46.26,34.11Z"/></g></g></svg>