<svg xmlns="http://www.w3.org/2000/svg" viewBox="0 0 120 120"><defs><style>.cls-1{fill:#fff;opacity:0.05;}.cls-2{fill:#f9f9f9;}</style></defs><title>local-f_1</title><g id="Camada_2" data-name="Camada 2"><g id="Prancheta_I" data-name="Prancheta I"><circle class="cls-1" cx="60" cy="60" r="60"/><path class="cls-2" d="M60,90a5,5,0,0,1-4.21-2.15c-1.85-2.71-4.27-6.17-7.18-10.29l0,0c-3.57-5.15-6-8.68-7.13-10.49A32.82,32.82,0,0,1,37.85,60a22.25,22.25,0,0,1-1-6.85A22.53,22.53,0,0,1,40,41.54a23.64,23.64,0,0,1,8.4-8.4,23,23,0,0,1,23.18,0,23.64,23.64,0,0,1,8.4,8.4,22.53,22.53,0,0,1,3.14,11.59,22.25,22.25,0,0,1-1,6.85A32.91,32.91,0,0,1,78.55,67c-1.16,1.82-3.57,5.35-7.14,10.5l-7.2,10.31A5,5,0,0,1,60,90Zm-.09-5h.18l7.19-10.3c3.54-5.1,5.9-8.58,7-10.34a28.26,28.26,0,0,0,3.06-5.92A18.45,18.45,0,0,0,75.66,44.1,18.8,18.8,0,0,0,69,37.47a17.93,17.93,0,0,0-18.06,0,18.8,18.8,0,0,0-6.63,6.63,18.45,18.45,0,0,0-1.71,14.31,28.53,28.53,0,0,0,3.06,5.93c1.12,1.75,3.49,5.23,7,10.32C55.64,78.79,58.06,82.26,59.91,85ZM60,64.23a11.13,11.13,0,0,1-11.1-11.1,11.09,11.09,0,0,1,18.94-7.85,11.07,11.07,0,0,1,0,15.69h0A10.7,10.7,0,0,1,60,64.23Zm0-17.18a5.73,5.73,0,0,0-4.29,1.79,6.06,6.06,0,0,0,0,8.58,6.06,6.06,0,0,0,8.58,0h0a6.06,6.06,0,0,0,0-8.58A5.73,5.73,0,0,0,60,47.05Z"/></g></g></svg>