<svg xmlns="http://www.w3.org/2000/svg" viewBox="0 0 80 80"><defs><style>.cls-1{fill:#1b89cc;}.cls-2{fill:#fff;}</style></defs><title>logo</title><g id="Camada_2" data-name="Camada 2"><g id="Camada_1-2" data-name="Camada 1"><g id="Camada_2-2" data-name="Camada 2"><g id="Camada_1-2-2" data-name="Camada 1-2"><rect class="cls-1" width="80" height="80" rx="10.67" ry="10.67"/><path class="cls-2" d="M59.57,22.83a12,12,0,0,0-11.57-8H28a13.65,13.65,0,0,0-12.48,8H48a4.21,4.21,0,0,1,4,3.84,4.06,4.06,0,0,1-3.89,4.21h-20V32a6.79,6.79,0,0,0,5.34,6.67V51.84a14.05,14.05,0,0,0,2,6.83,14.43,14.43,0,0,0,6.35,6V38.93H48a12.08,12.08,0,0,0,11.41-8,12.14,12.14,0,0,0,.8-4.21A12.52,12.52,0,0,0,59.57,22.83Z"/></g></g></g></g></svg>