<svg xmlns="http://www.w3.org/2000/svg" viewBox="0 0 303 122.57"><defs><style>.cls-1{fill:#f9f9f9;}</style></defs><title>logo-f</title><g id="Camada_2" data-name="Camada 2"><g id="Prancheta_I" data-name="Prancheta I"><path class="cls-1" d="M50.35,6.74q3.8,3.24,3.79,9.33,0,5.79-3.79,9T39.51,28.23H32V41.37H22.12V3.5H39.51Q46.56,3.5,50.35,6.74Zm-7.66,13A4.61,4.61,0,0,0,44.21,16a4.55,4.55,0,0,0-1.52-3.76A7.46,7.46,0,0,0,38,11H32V21h6A7.46,7.46,0,0,0,42.69,19.77Z"/><path class="cls-1" d="M80.59,12.74l-1,8.26A6,6,0,0,0,78,20.4a8.15,8.15,0,0,0-2.07-.26,6.44,6.44,0,0,0-4.59,1.75,6.63,6.63,0,0,0-1.83,5V41.37H59.76V12.68h8.61l.4,6.2a10.09,10.09,0,0,1,3.24-5,8.55,8.55,0,0,1,5.48-1.75A6.45,6.45,0,0,1,80.59,12.74Z"/><path class="cls-1" d="M109,16q4,3.93,4,11t-4,11Q105,42,97.87,42T86.7,38q-4-3.93-4-11t4-11q4-3.93,11.17-3.93T109,16Zm-15.24,4.9c-.88,1.27-1.32,3.29-1.32,6.09s.44,4.82,1.32,6.08a5.34,5.34,0,0,0,8.15,0q1.32-1.89,1.32-6.08c0-2.8-.44-4.82-1.32-6.09a5.34,5.34,0,0,0-8.15,0Z"/><path class="cls-1" d="M128.39,43c0,3.75-1,6.47-2.87,8.18s-4.67,2.55-8.26,2.55a14.09,14.09,0,0,1-7.52-1.84l1.38-6.31a5.29,5.29,0,0,0,3.61,1.15,3.78,3.78,0,0,0,2.9-1.06,5.06,5.06,0,0,0,1-3.53V12.68h9.75Zm-.6-41.83a4.31,4.31,0,0,1,1.4,3.56,4.3,4.3,0,0,1-1.37,3.5,6.79,6.79,0,0,1-4.36,1.14,6.58,6.58,0,0,1-4.28-1.14,4.36,4.36,0,0,1-1.35-3.5,4.41,4.41,0,0,1,1.35-3.56A6.52,6.52,0,0,1,123.46,0,6.75,6.75,0,0,1,127.79,1.15Z"/><path class="cls-1" d="M162.93,29.84H143.37a6.24,6.24,0,0,0,2,4,6.12,6.12,0,0,0,4,1.26,6.75,6.75,0,0,0,3.47-.8,4,4,0,0,0,1.81-2.36l7.92,2.53A9.6,9.6,0,0,1,157.91,40,17.26,17.26,0,0,1,149.39,42q-7.51,0-11.5-3.91t-4-11q0-7.12,3.9-11t11.08-3.9q6.93,0,10.64,3.81t3.7,10.71A14.29,14.29,0,0,1,162.93,29.84Zm-19.62-5.28H154.1q-.69-5.62-5.28-5.62T143.31,24.56Z"/><path class="cls-1" d="M192.14,14.58A10.35,10.35,0,0,1,196.21,21l-9.06,3c-.38-3.29-1.86-4.94-4.42-4.94q-5.68,0-5.68,8.09,0,7.86,5.68,7.86c2.72,0,4.3-1.55,4.76-4.64l8.78,2.81a9.33,9.33,0,0,1-4.16,6.34A16.13,16.13,0,0,1,182.79,42q-7.47,0-11.48-3.91t-4-11q0-7.07,4-11t11.11-3.93Q188.87,12.11,192.14,14.58Z"/><path class="cls-1" d="M222.27,39.77a12.11,12.11,0,0,1-3.65,1.57,16.45,16.45,0,0,1-4.44.61q-5.12,0-7.81-2.18c-1.8-1.46-2.71-3.79-2.75-7V19.62h-4.94V12.68h4.94V6.26l9.75-2.7v9.12H222v6.94h-8.61V31.16q0,3.84,3.79,3.84a7,7,0,0,0,4.13-1.26Z"/><path class="cls-1" d="M150.28,77.26q4.74,4.92,4.74,14t-4.74,14q-4.72,4.91-13.63,4.91H120.59V72.36h16.06Q145.55,72.36,150.28,77.26Zm-7.6,22.64q2.23-2.87,2.24-8.61t-2.24-8.6c-1.49-1.92-3.83-2.87-7-2.87h-5.22v23h5.22C138.85,102.77,141.19,101.82,142.68,99.9Z"/><path class="cls-1" d="M188.76,98.7H169.19a6.24,6.24,0,0,0,2,4,6.12,6.12,0,0,0,4,1.26,6.73,6.73,0,0,0,3.47-.8,3.92,3.92,0,0,0,1.81-2.36l7.92,2.53a9.6,9.6,0,0,1-4.68,5.59,17.37,17.37,0,0,1-8.52,1.92q-7.52,0-11.5-3.9t-4-11q0-7.12,3.9-11T174.7,81q6.93,0,10.64,3.81t3.7,10.7A15.08,15.08,0,0,1,188.76,98.7Zm-19.63-5.28h10.79q-.69-5.62-5.28-5.63T169.13,93.42Z"/><path class="cls-1" d="M192.37,105.75l5-5.5c1.64,2.71,4.48,4.07,8.49,4.07a7.41,7.41,0,0,0,3.16-.55,1.66,1.66,0,0,0,1.15-1.46c0-.53-.4-1-1.18-1.4a16.64,16.64,0,0,0-4-1.18q-6.42-1.26-9.15-3.44a7.05,7.05,0,0,1-2.72-5.8,7.92,7.92,0,0,1,1.54-4.65,10.91,10.91,0,0,1,4.68-3.53A19.37,19.37,0,0,1,207,81,20.76,20.76,0,0,1,215,82.31a12.11,12.11,0,0,1,5.08,4L215,91.29a8.48,8.48,0,0,0-3.28-2.92,10.31,10.31,0,0,0-4.53-.92,6.72,6.72,0,0,0-3.21.63,1.81,1.81,0,0,0-1.15,1.55c0,.57.39,1.06,1.18,1.46a16.62,16.62,0,0,0,4.1,1.18q6.32,1.1,9.09,3.24a7,7,0,0,1,2.79,5.88,8.1,8.1,0,0,1-3.5,6.8c-2.34,1.75-5.72,2.61-10.16,2.61Q196.5,110.8,192.37,105.75Z"/><path class="cls-1" d="M225.62,77.09a4.32,4.32,0,0,1-1.35-3.53A4.39,4.39,0,0,1,225.62,70a8.95,8.95,0,0,1,8.67,0,4.41,4.41,0,0,1,1.34,3.58,4.34,4.34,0,0,1-1.34,3.53,8.95,8.95,0,0,1-8.67,0Zm9.21,33.14h-9.75V81.54h9.75Z"/><path class="cls-1" d="M267.68,106a7.75,7.75,0,0,1,2.73,6.43,8.29,8.29,0,0,1-4.33,7.49q-4.33,2.61-11.8,2.61t-11.1-1.78q-3.59-1.79-3.59-5a4.74,4.74,0,0,1,1.32-3.33,7.67,7.67,0,0,1,4-2.07q-4.43-1.89-4.42-6a5.48,5.48,0,0,1,1.26-3.56,7.36,7.36,0,0,1,3.45-2.3,8.91,8.91,0,0,1-1-15.06Q247.86,81,254.51,81a24.68,24.68,0,0,1,5.74.63A10.67,10.67,0,0,1,262.83,76a7.22,7.22,0,0,1,5.57-2.18l.92.06,1.09,6.48c-.77-.07-1.3-.11-1.61-.11a6.82,6.82,0,0,0-3.24.69,4.22,4.22,0,0,0-1.87,1.89,8.37,8.37,0,0,1,4.82,7.92,8.18,8.18,0,0,1-3.67,7.17q-3.68,2.53-10.33,2.53A26.12,26.12,0,0,1,249,99.9a2,2,0,0,0-1.77,2c0,1.3,1,2,3,2H260Q265,103.86,267.68,106Zm-6.94,9.44c1.32-.52,2-1.19,2-2a1.47,1.47,0,0,0-.81-1.37,5.68,5.68,0,0,0-2.69-.46h-7.86a8.43,8.43,0,0,0-3.36.48,1.61,1.61,0,0,0-1,1.53c0,1.76,2.65,2.64,8,2.64A16.46,16.46,0,0,0,260.74,115.48Zm-9.3-27.8a4.06,4.06,0,0,0-1.17,3,4,4,0,0,0,1.17,3,4.77,4.77,0,0,0,6.14,0,3.93,3.93,0,0,0,1.18-3,4,4,0,0,0-1.18-3,4.67,4.67,0,0,0-6.14,0Z"/><path class="cls-1" d="M300.3,83.6c1.8,1.77,2.7,4.27,2.7,7.52v19.11h-9.76V93.82a6.38,6.38,0,0,0-1.06-4.16,3.75,3.75,0,0,0-3-1.23,4.73,4.73,0,0,0-3.73,1.63,7.45,7.45,0,0,0-1.43,5v15.15h-9.76V81.54H283l.29,5.51a9.9,9.9,0,0,1,3.9-4.56A11.21,11.21,0,0,1,293.07,81,9.93,9.93,0,0,1,300.3,83.6Z"/><g id="Camada_2-2" data-name="Camada 2"><g id="Camada_1-2" data-name="Camada 1-2"><circle class="cls-1" cx="5.98" cy="93.97" r="5.98"/><circle class="cls-1" cx="77.7" cy="93.97" r="9.56"/><circle class="cls-1" cx="41.84" cy="93.97" r="8.37"/></g></g></g></g></svg>