<svg xmlns="http://www.w3.org/2000/svg" viewBox="0 0 103.14 103.14"><defs><style>.cls-1{fill:#f9f9f9;}</style></defs><title>telefone-f</title><g id="Camada_2" data-name="Camada 2"><g id="Prancheta_I" data-name="Prancheta I"><path class="cls-1" d="M13.13,103.14a9,9,0,0,1-5.29-1.73,7.78,7.78,0,0,1-3.22-5.34L.24,77.1A8.48,8.48,0,0,1,1,71.21a8.29,8.29,0,0,1,4.45-4.1L26,58.27a8.38,8.38,0,0,1,5.5-.38,9.74,9.74,0,0,1,4.43,2.59l.3.33,6.87,8.42a60.81,60.81,0,0,0,15-11.13,63.81,63.81,0,0,0,11-15l-8.73-7.16a9.74,9.74,0,0,1-2.59-4.43,8.38,8.38,0,0,1,.38-5.5L67.11,5.4A8.29,8.29,0,0,1,71.21,1,8.48,8.48,0,0,1,77.1.24l19,4.38a7.78,7.78,0,0,1,5.34,3.22,9,9,0,0,1,1.73,5.29A89,89,0,0,1,90.92,58.52,90.84,90.84,0,0,1,58.54,90.9,88.91,88.91,0,0,1,13.13,103.14Zm-4.47-28,4.47,19.36a80.37,80.37,0,0,0,41-11,82.27,82.27,0,0,0,29.3-29.3,80.42,80.42,0,0,0,11-41l-.16,0L75.13,8.66h0L66.26,29.33a1.27,1.27,0,0,0,.23.38L80,40.71l-1.42,3A72.57,72.57,0,0,1,64.31,64.18,69.53,69.53,0,0,1,43.74,78.55l-3,1.39-11-13.45a1,1,0,0,0-.38-.23L8.67,75.12Z"/></g></g></svg>