<svg xmlns="http://www.w3.org/2000/svg" viewBox="0 0 120 120"><defs><style>.cls-1{fill:#fff;opacity:0.05;}.cls-2{fill:#f9f9f9;}</style></defs><title>telefone-f_1</title><g id="Camada_2" data-name="Camada 2"><g id="Prancheta_I" data-name="Prancheta I"><circle class="cls-1" cx="60" cy="60" r="60"/><path class="cls-2" d="M37.77,90a5.21,5.21,0,0,1-3.08-1,4.47,4.47,0,0,1-1.87-3.1l-2.55-11a4.92,4.92,0,0,1,.41-3.42,4.84,4.84,0,0,1,2.59-2.39l12-5.14a5,5,0,0,1,3.2-.23A5.71,5.71,0,0,1,51,65.21l.17.19,4,4.9A35.14,35.14,0,0,0,64,63.83a37.15,37.15,0,0,0,6.43-8.73l-5.07-4.16a5.7,5.7,0,0,1-1.52-2.58,5,5,0,0,1,.23-3.2l5.14-12a4.84,4.84,0,0,1,2.39-2.59A4.93,4.93,0,0,1,75,30.17l11,2.55a4.47,4.47,0,0,1,3.1,1.87,5.21,5.21,0,0,1,1,3.08A51.71,51.71,0,0,1,83,64.07,52.82,52.82,0,0,1,64.18,82.91,51.68,51.68,0,0,1,37.77,90Zm-2.6-16.29L37.77,85a46.71,46.71,0,0,0,23.87-6.43,47.81,47.81,0,0,0,17-17A46.74,46.74,0,0,0,85.1,37.67l-.09,0L73.84,35.07h0l-5.15,12a.59.59,0,0,0,.13.22l7.84,6.4-.83,1.78a42.34,42.34,0,0,1-8.28,11.88,40.47,40.47,0,0,1-12,8.36l-1.76.81-6.4-7.83a.51.51,0,0,0-.21-.13l-12,5.15Z"/></g></g></svg>