<svg xmlns="http://www.w3.org/2000/svg" viewBox="0 0 601 337.54"><defs><style>.cls-1{fill:#051b26;}.cls-2{fill:#1b89cc;}.cls-3{fill:#29abe2;}.cls-4{fill:#fff;}.cls-5{fill:#b60061;}.cls-6{fill:#c5502e;}.cls-7{fill:#3a9fa3;}.cls-8{fill:#44cdf2;}.cls-25,.cls-9{fill:#19090c;}.cls-10{fill:#cd8a66;}.cls-11{fill:#b77358;}.cls-12{fill:#fef6e6;}.cls-13{fill:#d4145a;}.cls-14{fill:#0e2634;}.cls-15{fill:#12303f;}.cls-16{fill:#36bbea;}.cls-17{opacity:0.15;}.cls-18,.cls-25{opacity:0.2;}.cls-19{fill:#c90073;}.cls-20{fill:#ed1e79;}.cls-21{fill:#bf006d;}.cls-22{fill:#f2f2f2;}.cls-23{opacity:0.05;}.cls-24{fill:#2e3335;}</style></defs><title>bg-header-h</title><g id="Camada_2" data-name="Camada 2"><g id="Prancheta_II" data-name="Prancheta II"><polyline class="cls-1" points="600.69 0 600.69 337.54 0.63 337.54 0.63 0"/><path class="cls-2" d="M221.28,212.71l81.47-37.6-48.49-22.32a30.55,30.55,0,0,0-28.79,1.75l-58.28,36L190.55,209A29.56,29.56,0,0,0,221.28,212.71Z"/><path class="cls-2" d="M46,181.54A30.53,30.53,0,0,0,.94,208.4v47.8l68-62.25Z"/><polygon class="cls-2" points="601 335.35 600.06 220.34 600.06 335.35 601 335.35"/><path class="cls-2" d="M498.84,214.12l50.89-27.54-36.91-24.75a30.51,30.51,0,0,0-34.2.13l-41.8,28.49,30.94,21.83A29.55,29.55,0,0,0,498.84,214.12Z"/><path class="cls-3" d="M600.06,220.34V208.9a29.53,29.53,0,0,0-43.58-26l-6.75,3.65-50.89,27.54a29.55,29.55,0,0,1-31.08-1.84l-30.94-21.83-52.23-36.86a29.53,29.53,0,0,0-29.4-2.68l-52.44,24.2-81.47,37.6A29.56,29.56,0,0,1,190.55,209l-23.36-18.54L136.3,166A29.53,29.53,0,0,0,98,167.33L68.93,194,.94,256.2l-.94.86v80.48H600.06V220.34Z"/><rect class="cls-2" x="220.49" y="45.32" width="18.86" height="51.26"/><rect class="cls-4" x="223.85" y="49.38" width="12.14" height="28.13"/><circle class="cls-4" cx="229.92" cy="85.79" r="2.97"/><rect class="cls-5" x="202.05" y="45.32" width="18.86" height="51.26"/><rect class="cls-4" x="205.41" y="49.38" width="12.14" height="28.13"/><circle class="cls-4" cx="211.48" cy="85.79" r="2.97"/><rect class="cls-6" x="257.37" y="45.32" width="18.86" height="51.26"/><rect class="cls-4" x="260.73" y="49.38" width="12.14" height="28.13"/><circle class="cls-4" cx="266.8" cy="85.79" r="2.97"/><rect class="cls-7" x="238.93" y="45.32" width="18.86" height="51.26"/><rect class="cls-4" x="242.29" y="49.38" width="12.14" height="28.13"/><circle class="cls-4" cx="248.36" cy="85.79" r="2.97"/><rect class="cls-8" x="146.73" y="45.32" width="18.86" height="51.26"/><rect class="cls-4" x="150.09" y="49.38" width="12.14" height="28.13"/><circle class="cls-4" cx="156.16" cy="85.79" r="2.97"/><rect class="cls-9" x="128.29" y="45.32" width="18.86" height="51.26"/><rect class="cls-4" x="131.65" y="49.38" width="12.14" height="28.13"/><circle class="cls-4" cx="137.72" cy="85.79" r="2.97"/><rect class="cls-5" x="183.61" y="45.32" width="18.86" height="51.26"/><rect class="cls-4" x="186.97" y="49.38" width="12.14" height="28.13"/><circle class="cls-4" cx="193.04" cy="85.79" r="2.97"/><rect class="cls-6" x="165.17" y="45.32" width="18.86" height="51.26"/><rect class="cls-4" x="168.53" y="49.38" width="12.14" height="28.13"/><circle class="cls-4" cx="174.6" cy="85.79" r="2.97"/><rect class="cls-2" x="55.01" y="96.57" width="495.36" height="16.25"/><path class="cls-2" d="M399.85,242.57h0c-5,5.65-13.15,6-18.21.86l-57-58.37c-5.06-5.17-5.1-13.94-.11-19.59h0c5-5.64,13.16-6,18.21-.85l57,58.36C404.8,228.16,404.85,236.93,399.85,242.57Z"/><path class="cls-10" d="M310.69,281.36h0c-3.59-7.23-1.1-16.24,5.55-20.14L385,221c6.64-3.89,14.94-1.19,18.52,6h0c3.59,7.23,1.1,16.24-5.55,20.14l-68.74,40.27C322.56,291.28,314.27,288.58,310.69,281.36Z"/><path class="cls-2" d="M198.35,242.57h0c5,5.65,13.15,6,18.21.86l57-58.37c5.06-5.17,5.1-13.94.1-19.59h0c-5-5.64-13.15-6-18.2-.85l-57,58.36C193.4,228.16,193.35,236.93,198.35,242.57Z"/><path class="cls-10" d="M287.29,281.36h0c3.59-7.23,1.1-16.24-5.55-20.14L213,221c-6.65-3.89-14.95-1.19-18.53,6h0c-3.58,7.23-1.1,16.24,5.55,20.14l68.74,40.27C275.42,291.28,283.71,288.58,287.29,281.36Z"/><ellipse class="cls-9" cx="298.99" cy="115.81" rx="36.29" ry="37.68"/><circle class="cls-10" cx="331.62" cy="135.49" r="10.47"/><circle class="cls-11" cx="331.62" cy="135.49" r="5.44"/><circle class="cls-10" cx="265.75" cy="135.49" r="10.47"/><circle class="cls-11" cx="265.75" cy="135.49" r="5.44"/><path class="cls-10" d="M298.89,82.32c-18.08,0-32.73,18.74-32.73,41.87v27.63c0,23.12,14.65,41.86,32.73,41.86s32.74-18.74,32.74-41.86V124.19C331.63,101.06,317,82.32,298.89,82.32Z"/><path class="cls-9" d="M310.67,176a16.69,16.69,0,0,0,4.71-11.63c0-.57,0-1.13-.09-1.68H282a15.48,15.48,0,0,0-.09,1.68A16.69,16.69,0,0,0,286.6,176a17.15,17.15,0,0,1,24.07,0Z"/><path class="cls-12" d="M307.75,156H289.52a7.52,7.52,0,0,0-7.53,6.63v.07h33.31v-.07A7.52,7.52,0,0,0,307.75,156Z"/><path class="cls-13" d="M298.63,181.12a16.7,16.7,0,0,0,12-5.11,17.15,17.15,0,0,0-24.07,0A16.68,16.68,0,0,0,298.63,181.12Z"/><circle class="cls-9" cx="314.8" cy="127.54" r="4.19"/><circle class="cls-9" cx="282.15" cy="127.54" r="4.19"/><circle class="cls-12" cx="314.8" cy="130.05" r="2.51"/><circle class="cls-12" cx="281.98" cy="130.05" r="2.51"/><rect class="cls-11" x="294.71" y="128.37" width="8.37" height="20.93" rx="4.19" ry="4.19"/><circle class="cls-9" cx="308.94" cy="89.02" r="6.7"/><circle class="cls-9" cx="298.89" cy="89.86" r="10.05"/><circle class="cls-9" cx="286.43" cy="89.02" r="7.44"/><circle class="cls-9" cx="276.38" cy="94.04" r="5.76"/><circle class="cls-9" cx="269.69" cy="99.07" r="3.25"/><circle class="cls-9" cx="326.62" cy="99.07" r="3.25"/><circle class="cls-9" cx="319.51" cy="92.79" r="7.02"/><rect class="cls-9" x="269.67" y="111" width="16.57" height="3.77" rx="1.88" ry="1.88" transform="translate(-15.68 51.38) rotate(-10.27)"/><rect class="cls-9" x="316.36" y="104.6" width="3.77" height="16.57" rx="1.88" ry="1.88" transform="translate(150.41 405.89) rotate(-79.73)"/><path class="cls-9" d="M319.29,116.12h-6.05A12.26,12.26,0,0,0,301,128h-4.63a12.26,12.26,0,0,0-12.24-11.91h-6.05a12.26,12.26,0,1,0,0,24.51h6.05a12.28,12.28,0,0,0,12.06-10.09h5a12.28,12.28,0,0,0,12.06,10.09h6.05a12.26,12.26,0,1,0,0-24.51Zm-35.16,22h-6.05a9.75,9.75,0,1,1,0-19.49h6.05a9.75,9.75,0,0,1,0,19.49Zm35.16,0h-6.05a9.75,9.75,0,0,1,0-19.49h6.05a9.75,9.75,0,1,1,0,19.49Z"/><rect class="cls-2" x="92.19" y="286.04" width="417.55" height="16.39"/><rect class="cls-14" x="218.08" y="167.38" width="160.88" height="113.16" rx="13.92" ry="13.92"/><rect class="cls-15" x="225.68" y="280.13" width="145.75" height="6.13"/><g id="Camada_2-2" data-name="Camada 2"><g id="Camada_1-2" data-name="Camada 1-2"><path class="cls-4" d="M316.14,214a10.16,10.16,0,0,0-9.72-6.72H289.58a11.48,11.48,0,0,0-9.7,5.29.93.93,0,0,0,.8,1.43h25.74a3.54,3.54,0,0,1,3.31,3.23,3.4,3.4,0,0,1-3.26,3.53H290.61a1,1,0,0,0-.94.94h0a5.69,5.69,0,0,0,3.85,5.43.92.92,0,0,1,.63.88v10.35a11.86,11.86,0,0,0,1.65,5.74,12.27,12.27,0,0,0,3.86,4.21.94.94,0,0,0,1.47-.78V228.44a.94.94,0,0,1,.94-.94h4.35a10.46,10.46,0,0,0,10.25-10.3A10.71,10.71,0,0,0,316.14,214Z"/></g></g><rect class="cls-7" x="472.79" y="201.98" width="10.56" height="52.19"/><rect class="cls-8" x="439.37" y="243.03" width="56.3" height="42.81"/><rect class="cls-16" x="439.37" y="243.03" width="56.3" height="9.97"/><rect class="cls-5" x="451.68" y="214.3" width="10.56" height="28.74"/><rect class="cls-6" x="462.24" y="190.84" width="10.56" height="52.19"/><g class="cls-17"><circle class="cls-13" cx="130.01" cy="198.84" r="29.69"/></g><g class="cls-18"><circle class="cls-13" cx="130.21" cy="198.19" r="24.64"/></g><path class="cls-13" d="M119.25,185.63l.17,0h0Z"/><path class="cls-19" d="M127.41,181.33a3.61,3.61,0,0,1,1.88,7l9.81-2.64a3.61,3.61,0,0,1,1.88,7L135.82,194a3.61,3.61,0,1,1,1.88,7L132,202.54a3.61,3.61,0,1,1,1.88,7l4.65-1.25a3.61,3.61,0,0,1,3.18,6.32A20,20,0,0,0,135,178.74a3.59,3.59,0,0,1-1.66,1Z"/><path class="cls-13" d="M140.42,215.24a3.58,3.58,0,0,1,.45-.09l.42-.28A3.8,3.8,0,0,1,140.42,215.24Z"/><polygon class="cls-13" points="134.61 217.72 134.61 217.72 134.61 217.72 134.61 217.72"/><path class="cls-20" d="M141.72,214.58l-.43.29A3.23,3.23,0,0,0,141.72,214.58Z"/><path class="cls-20" d="M130.71,215.48a3.18,3.18,0,1,0-1.65-6.14l-4.1,1.11a3.18,3.18,0,0,0-1.65-6.15l5-1.35a3.18,3.18,0,1,0-1.65-6.14l4.55-1.22a3.19,3.19,0,0,0-1.66-6.15l-8.64,2.33a3.18,3.18,0,0,0-1.49-6.18A22.62,22.62,0,0,0,117.36,199a24.87,24.87,0,0,0,.52,2.51,23.49,23.49,0,0,0,1.68,4.38,22.54,22.54,0,0,0,4.66,6.23,22.89,22.89,0,0,0,8.7,5.14c.56.17,1.12.33,1.69.46A3.19,3.19,0,0,0,130.71,215.48Z"/><path class="cls-21" d="M141.29,214.87l.43-.29a3.61,3.61,0,0,0-3.18-6.32l-4.65,1.25a3.61,3.61,0,1,0-1.88-7L137.7,201a3.61,3.61,0,1,0-1.88-7l5.16-1.39a3.61,3.61,0,0,0-1.88-7l-9.81,2.64a3.61,3.61,0,0,0-1.88-7l5.94-1.6a3.59,3.59,0,0,0,1.66-1,20,20,0,0,0-9.35-.06,3.18,3.18,0,0,1-1.18,5.54l-5,1.36h0a3.18,3.18,0,0,1,1.49,6.18l8.64-2.33a3.19,3.19,0,0,1,1.66,6.15l-4.55,1.22a3.18,3.18,0,1,1,1.65,6.14l-5,1.35a3.18,3.18,0,0,1,1.65,6.15l4.1-1.11a3.18,3.18,0,1,1,1.65,6.14,3.19,3.19,0,0,1,3.9,2.24h0l.81-.19a20.08,20.08,0,0,0,5.45-2.38,3.58,3.58,0,0,0-.45.09A3.8,3.8,0,0,0,141.29,214.87Z"/><path class="cls-5" d="M129.45,189.47l-8.54,2.3a3.18,3.18,0,0,0-1.66-6.14l5.14-1.38a3.26,3.26,0,0,0,2.4-3.67,3.12,3.12,0,0,0-1.13-1.89h0l-.66.16a20,20,0,0,0-11.52,8.35,20,20,0,0,0-3.07,14c.12.74.27,1.47.46,2.21a20.56,20.56,0,0,0,1.48,3.86,20,20,0,0,0,11.77,10,19.88,19.88,0,0,0,10.49.47s0,0,0,0a3.19,3.19,0,0,0-3.65-2.28s0,0,0,0a3.19,3.19,0,0,0,2-4,3.25,3.25,0,0,0-4-2.08l-4,1.08a3.18,3.18,0,0,0-1.65-6.15l4.91-1.32a3.26,3.26,0,0,0,2.37-3.79,3.18,3.18,0,0,0-3.93-2.38l4.55-1.22a3.18,3.18,0,0,0,2.2-4A3.25,3.25,0,0,0,129.45,189.47Z"/><circle class="cls-22" cx="126.73" cy="219.89" r="4.43"/><circle class="cls-22" cx="133.52" cy="218.32" r="1.72"/><circle class="cls-22" cx="130.21" cy="224.76" r="3.94"/><g class="cls-23"><circle class="cls-22" cx="123.24" cy="219.89" r="4.43"/><circle class="cls-22" cx="130.04" cy="218.32" r="1.72"/><circle class="cls-22" cx="126.73" cy="224.76" r="3.94"/></g><path class="cls-2" d="M156.25,202.81a4.94,4.94,0,0,0,0-7h0a4.94,4.94,0,0,0-7,0l-8.75,8.74h0a4.95,4.95,0,0,1,7,7h0Z"/><path class="cls-8" d="M140.39,204.68a4.95,4.95,0,1,0,7,7l.12-.12-7-7Z"/><path class="cls-8" d="M156.53,192.12h0a.67.67,0,0,1,.67.67v6.16a0,0,0,0,1,0,0h-1.34a0,0,0,0,1,0,0v-6.16a.67.67,0,0,1,.67-.67Z" transform="translate(184.11 -53.42) rotate(45)"/><path class="cls-2" d="M143.71,215.56a2.59,2.59,0,1,0-3.66,3.66l.07.06,3.65-3.65Z"/><path class="cls-2" d="M145.79,215.56a2.58,2.58,0,1,1,3.65,3.66l-.06.06-3.65-3.65Z"/><circle class="cls-3" cx="144.71" cy="218.78" r="1.54"/><path class="cls-2" d="M136.5,208.36a2.58,2.58,0,1,1-3.65,3.65l-.07-.06,3.66-3.66Z"/><path class="cls-2" d="M136.5,206.27a2.58,2.58,0,1,0-3.65-3.65l-.07.06,3.66,3.66Z"/><circle class="cls-3" cx="133.28" cy="207.35" r="1.54"/><path class="cls-24" d="M157.83,242.24V234.4H106.57v34.07a17.19,17.19,0,0,0,17.19,17.18h16.88a17.18,17.18,0,0,0,14.46-7.9,17.81,17.81,0,1,0,2.73-35.51Zm-1.06,32.17a17,17,0,0,0,1.06-5.94V245.91a14.69,14.69,0,0,1-1.06,28.5Z"/><text></text><path class="cls-4" d="M463.8,185.33h0Z"/><circle class="cls-25" cx="132.04" cy="257.06" r="8.59"/><circle class="cls-25" cx="142.05" cy="265.81" r="2.97"/></g></g></svg>