<svg xmlns="http://www.w3.org/2000/svg" viewBox="0 0 61 61"><defs><style>.cls-1{fill:#051b26;}.cls-2{fill:#e4ebed;}</style></defs><title>i-icon_1</title><g id="Camada_2" data-name="Camada 2"><g id="Prancheta_II" data-name="Prancheta II"><circle class="cls-1" cx="30.5" cy="30.5" r="30.5"/><path class="cls-2" d="M45.43,24.27q.07,1.88.07,6.23t-.1,6.26a12.94,12.94,0,0,1-.57,3.32,7.83,7.83,0,0,1-4.75,4.75,12.94,12.94,0,0,1-3.32.57q-1.9.1-6.26.1t-6.26-.1a11,11,0,0,1-3.32-.64A7.17,7.17,0,0,1,18,43a7.92,7.92,0,0,1-1.84-2.91,12.94,12.94,0,0,1-.57-3.32q-.11-1.9-.1-6.26t.1-6.26a12.94,12.94,0,0,1,.57-3.32,7.83,7.83,0,0,1,4.75-4.75,12.94,12.94,0,0,1,3.32-.57q1.91-.11,6.26-.1t6.26.1a12.94,12.94,0,0,1,3.32.57,7.83,7.83,0,0,1,4.75,4.75A13.86,13.86,0,0,1,45.43,24.27ZM42.22,39.34a13.64,13.64,0,0,0,.53-3.62c0-1,.07-2.36.07-4.15V29.43c0-1.83,0-3.22-.07-4.15a13.08,13.08,0,0,0-.53-3.62,4.88,4.88,0,0,0-2.88-2.88,13,13,0,0,0-3.62-.53c-1-.05-2.36-.07-4.15-.07H29.43c-1.79,0-3.17,0-4.15.07a13.71,13.71,0,0,0-3.62.53,4.88,4.88,0,0,0-2.88,2.88,13.08,13.08,0,0,0-.53,3.62c-.05,1-.07,2.36-.07,4.15v2.14c0,1.79,0,3.17.07,4.15a13.64,13.64,0,0,0,.53,3.62,5.1,5.1,0,0,0,2.88,2.88,13.71,13.71,0,0,0,3.62.53c1,0,2.36.07,4.15.07h2.14c1.83,0,3.22,0,4.15-.07a13,13,0,0,0,3.62-.53A5.1,5.1,0,0,0,42.22,39.34ZM30.5,22.8a7.52,7.52,0,0,1,3.85,1,7.73,7.73,0,0,1,2.81,2.81,7.65,7.65,0,0,1,0,7.7,7.73,7.73,0,0,1-2.81,2.81,7.65,7.65,0,0,1-7.7,0,7.73,7.73,0,0,1-2.81-2.81,7.65,7.65,0,0,1,0-7.7,7.73,7.73,0,0,1,2.81-2.81A7.52,7.52,0,0,1,30.5,22.8Zm0,12.72A5,5,0,0,0,34.05,27a5,5,0,0,0-7.1,7.1A4.85,4.85,0,0,0,30.5,35.52Zm9.84-13.06a1.8,1.8,0,0,0-3.08-1.27,1.81,1.81,0,0,0,1.28,3.08,1.63,1.63,0,0,0,1.23-.53A2,2,0,0,0,40.34,22.46Z"/></g></g></svg>