<svg xmlns="http://www.w3.org/2000/svg" viewBox="0 0 1923 833"><defs><style>.cls-1{fill:#051b26;}.cls-2{fill:#1b89cc;}.cls-3{fill:#29abe2;}.cls-4{fill:#fff;}.cls-5{fill:#b60061;}.cls-6{fill:#c5502e;}.cls-7{fill:#3a9fa3;}.cls-8{fill:#44cdf2;}.cls-25,.cls-9{fill:#19090c;}.cls-10{fill:#cd8a66;}.cls-11{fill:#b77358;}.cls-12{fill:#fef6e6;}.cls-13{fill:#d4145a;}.cls-14{fill:#0e2634;}.cls-15{fill:#12303f;}.cls-16{fill:#36bbea;}.cls-17{opacity:0.15;}.cls-18,.cls-25{opacity:0.2;}.cls-19{fill:#c90073;}.cls-20{fill:#ed1e79;}.cls-21{fill:#bf006d;}.cls-22{fill:#f2f2f2;}.cls-23{opacity:0.05;}.cls-24{fill:#2e3335;}</style></defs><title>animation-bg</title><g id="Camada_2" data-name="Camada 2"><g id="Prancheta_I" data-name="Prancheta I"><polygon class="cls-1" points="3 1 1923 0 1920 833 0 833 3 1"/><path class="cls-2" d="M708,433.59l260.67-120.3-155.13-71.4a97.71,97.71,0,0,0-92.12,5.59l-186.5,115,74.77,59.32A94.49,94.49,0,0,0,708,433.59Z"/><path class="cls-2" d="M147.17,333.88C82.08,298.67,3,345.8,3,419.8v153L220.55,373.58Z"/><polygon class="cls-2" points="1923 826 1920 458 1920 826 1923 826"/><path class="cls-2" d="M1596.11,438.11,1759,350l-118.11-79.21a97.7,97.7,0,0,0-109.44.42l-133.73,91.16,99,69.84A94.45,94.45,0,0,0,1596.11,438.11Z"/><path class="cls-3" d="M1920,458V421.42c0-71.57-76.49-117.16-139.44-83.1L1759,350l-162.86,88.11a94.45,94.45,0,0,1-99.43-5.9l-99-69.84L1230.55,244.44a94.46,94.46,0,0,0-94.06-8.59l-167.8,77.44L708,433.59a94.49,94.49,0,0,1-98.31-11.78l-74.77-59.32-98.83-78.42a94.49,94.49,0,0,0-122.53,4.33l-93,85.18L3,572.75,0,575.5V833H1920V458Z"/><rect class="cls-2" x="793.1" y="261" width="40.24" height="109.38"/><rect class="cls-4" x="800.26" y="269.67" width="25.91" height="60.02"/><circle class="cls-4" cx="813.22" cy="347.37" r="6.34"/><rect class="cls-5" x="753.75" y="261" width="40.24" height="109.38"/><rect class="cls-4" x="760.91" y="269.67" width="25.91" height="60.02"/><circle class="cls-4" cx="773.87" cy="347.37" r="6.34"/><rect class="cls-6" x="871.79" y="261" width="40.24" height="109.38"/><rect class="cls-4" x="878.96" y="269.67" width="25.91" height="60.02"/><circle class="cls-4" cx="891.91" cy="347.37" r="6.34"/><rect class="cls-7" x="832.45" y="261" width="40.24" height="109.38"/><rect class="cls-4" x="839.61" y="269.67" width="25.91" height="60.02"/><circle class="cls-4" cx="852.56" cy="347.37" r="6.34"/><rect class="cls-8" x="635.7" y="261" width="40.24" height="109.38"/><rect class="cls-4" x="642.87" y="269.67" width="25.91" height="60.02"/><circle class="cls-4" cx="655.82" cy="347.37" r="6.34"/><rect class="cls-9" x="596.35" y="261" width="40.24" height="109.38"/><rect class="cls-4" x="603.52" y="269.67" width="25.91" height="60.02"/><circle class="cls-4" cx="616.47" cy="347.37" r="6.34"/><rect class="cls-5" x="714.4" y="261" width="40.24" height="109.38"/><rect class="cls-4" x="721.56" y="269.67" width="25.91" height="60.02"/><circle class="cls-4" cx="734.52" cy="347.37" r="6.34"/><rect class="cls-6" x="675.05" y="261" width="40.24" height="109.38"/><rect class="cls-4" x="682.22" y="269.67" width="25.91" height="60.02"/><circle class="cls-4" cx="695.17" cy="347.37" r="6.34"/><rect class="cls-8" x="439.96" y="370.38" width="1057.09" height="34.68"/><path class="cls-2" d="M1175.84,587.94h0c-10.67,12-28.07,12.86-38.86,1.82L1015.27,465.21c-10.79-11-10.88-29.76-.21-41.81h0c10.67-12,28.06-12.86,38.85-1.82l121.71,124.56C1186.41,557.18,1186.5,575.89,1175.84,587.94Z"/><path class="cls-10" d="M985.57,670.7h0c-7.65-15.42-2.35-34.66,11.84-43L1144.1,541.8c14.19-8.32,31.89-2.55,39.53,12.87h0c7.65,15.42,2.35,34.65-11.84,43L1025.1,683.57C1010.92,691.88,993.22,686.12,985.57,670.7Z"/><path class="cls-2" d="M745.85,587.94h0c10.67,12,28.07,12.86,38.85,1.82L906.41,465.21c10.79-11,10.89-29.76.22-41.81h0c-10.67-12-28.06-12.86-38.85-1.82L746.07,546.14C735.28,557.18,735.18,575.89,745.85,587.94Z"/><path class="cls-10" d="M935.65,670.7h0c7.65-15.42,2.35-34.66-11.84-43L777.12,541.8c-14.19-8.32-31.89-2.55-39.53,12.87h0c-7.65,15.42-2.35,34.65,11.84,43l146.69,85.93C910.3,691.88,928,686.12,935.65,670.7Z"/><ellipse class="cls-9" cx="960.61" cy="317.44" rx="77.44" ry="80.41"/><circle class="cls-10" cx="1030.23" cy="359.43" r="22.34"/><circle class="cls-11" cx="1030.23" cy="359.43" r="11.61"/><circle class="cls-10" cx="889.67" cy="359.43" r="22.34"/><circle class="cls-11" cx="889.67" cy="359.43" r="11.61"/><path class="cls-10" d="M960.4,246c-38.58,0-69.85,40-69.85,89.34v59c0,49.34,31.27,89.34,69.85,89.34s69.86-40,69.86-89.34v-59C1030.26,286,999,246,960.4,246Z"/><path class="cls-9" d="M985.52,445.89a35.58,35.58,0,0,0,10.06-24.82,34.94,34.94,0,0,0-.2-3.57H924.31a34.94,34.94,0,0,0-.2,3.57,35.58,35.58,0,0,0,10.06,24.82,36.59,36.59,0,0,1,51.35,0Z"/><path class="cls-12" d="M979.29,403.2H940.4a16.07,16.07,0,0,0-16.08,14.14v.16h71.07v-.16A16.07,16.07,0,0,0,979.29,403.2Z"/><path class="cls-13" d="M959.85,456.81a35.59,35.59,0,0,0,25.67-10.92,36.59,36.59,0,0,0-51.35,0A35.62,35.62,0,0,0,959.85,456.81Z"/><circle class="cls-9" cx="994.35" cy="342.45" r="8.93"/><circle class="cls-9" cx="924.67" cy="342.45" r="8.93"/><circle class="cls-12" cx="994.35" cy="347.81" r="5.36"/><circle class="cls-12" cx="924.31" cy="347.81" r="5.36"/><rect class="cls-11" x="951.47" y="344.24" width="17.87" height="44.67" rx="8.93" ry="8.93"/><circle class="cls-9" cx="981.85" cy="260.26" r="14.29"/><circle class="cls-9" cx="960.4" cy="262.04" r="21.44"/><circle class="cls-9" cx="933.81" cy="260.26" r="15.87"/><circle class="cls-9" cx="912.37" cy="270.98" r="12.3"/><circle class="cls-9" cx="898.08" cy="281.7" r="6.94"/><circle class="cls-9" cx="1019.58" cy="281.7" r="6.94"/><circle class="cls-9" cx="1004.39" cy="268.3" r="14.98"/><rect class="cls-9" x="898.04" y="307.17" width="35.36" height="8.03" rx="4.02" ry="4.02" transform="translate(-40.82 168.3) rotate(-10.27)"/><rect class="cls-9" x="997.67" y="293.51" width="8.03" height="35.36" rx="4.02" ry="4.02" transform="translate(516.85 1241.32) rotate(-79.73)"/><path class="cls-9" d="M1003.94,318.08H991a26.18,26.18,0,0,0-26.14,25.43H955a26.18,26.18,0,0,0-26.14-25.43H916a26.16,26.16,0,1,0,0,52.31h12.91a26.2,26.2,0,0,0,25.74-21.52h10.66A26.19,26.19,0,0,0,991,370.39h12.91a26.16,26.16,0,0,0,0-52.31ZM928.89,365H916a20.8,20.8,0,0,1,0-41.59h12.91a20.8,20.8,0,0,1,0,41.59Zm75.05,0H991a20.8,20.8,0,1,1,0-41.59h12.91a20.8,20.8,0,0,1,0,41.59Z"/><rect class="cls-2" x="519.31" y="680.69" width="891.03" height="34.97"/><rect class="cls-14" x="787.95" y="427.48" width="343.32" height="241.47" rx="13.92" ry="13.92"/><rect class="cls-15" x="804.18" y="668.08" width="311.03" height="13.08"/><g id="Camada_2-2" data-name="Camada 2"><g id="Camada_1-2" data-name="Camada 1-2"><path class="cls-4" d="M997.2,526.9a21.61,21.61,0,0,0-20.74-14.33H940.53a24.49,24.49,0,0,0-20.7,11.27,2,2,0,0,0,1.71,3.06h54.92a7.55,7.55,0,0,1,7.07,6.88,7.27,7.27,0,0,1-7,7.55H942.73a2,2,0,0,0-2,2h0a12.13,12.13,0,0,0,8.21,11.57,2,2,0,0,1,1.34,1.89v22.09a25.37,25.37,0,0,0,3.54,12.23,26,26,0,0,0,8.22,9,2,2,0,0,0,3.15-1.65V557.77a2,2,0,0,1,2-2h9.27a22.3,22.3,0,0,0,21.88-22A22.7,22.7,0,0,0,997.2,526.9Z"/></g></g><rect class="cls-7" x="1331.5" y="501.31" width="22.53" height="111.38"/><rect class="cls-8" x="1260.17" y="588.92" width="120.14" height="91.36"/><rect class="cls-16" x="1260.17" y="588.92" width="120.14" height="21.27"/><rect class="cls-5" x="1286.45" y="527.6" width="22.53" height="61.32"/><rect class="cls-6" x="1308.98" y="477.54" width="22.53" height="111.38"/><g class="cls-17"><circle class="cls-13" cx="600.01" cy="494.6" r="63.35"/></g><g class="cls-18"><circle class="cls-13" cx="600.43" cy="493.22" r="52.59"/></g><path class="cls-13" d="M577.05,466.42l.37-.08v0Z"/><path class="cls-19" d="M594.45,457.24a7.71,7.71,0,0,1,4,14.89l20.95-5.65a7.71,7.71,0,0,1,4,14.89l-11,3a7.71,7.71,0,0,1,4,14.89l-12.13,3.27a7.71,7.71,0,0,1,4,14.89l9.92-2.68a7.71,7.71,0,0,1,6.78,13.5,42.74,42.74,0,0,0-14.32-76.48,7.75,7.75,0,0,1-3.54,2.1Z"/><path class="cls-13" d="M622.23,529.6a8.14,8.14,0,0,1,1-.19l.9-.59A7.69,7.69,0,0,1,622.23,529.6Z"/><polygon class="cls-13" points="609.83 534.91 609.83 534.91 609.83 534.91 609.83 534.91"/><path class="cls-20" d="M625,528.21l-.91.61A8.49,8.49,0,0,0,625,528.21Z"/><path class="cls-20" d="M601.51,530.13A6.79,6.79,0,1,0,598,517l-8.74,2.36a6.79,6.79,0,1,0-3.53-13.11l10.68-2.88a6.79,6.79,0,1,0-3.53-13.11l9.71-2.61A6.79,6.79,0,0,0,599,474.56l-18.45,5a6.78,6.78,0,0,0-3.16-13.19,48.92,48.92,0,0,0-4.18,12.59,48.87,48.87,0,0,0,.89,21.38,49,49,0,0,0,3.58,9.35,48.56,48.56,0,0,0,28.52,24.25c1.18.38,2.38.71,3.6,1A6.8,6.8,0,0,0,601.51,530.13Z"/><path class="cls-21" d="M624.09,528.82l.91-.61a7.71,7.71,0,0,0-6.78-13.5l-9.92,2.68a7.71,7.71,0,0,0-4-14.89l12.13-3.27a7.71,7.71,0,0,0-4-14.89l11-3a7.71,7.71,0,0,0-4-14.89l-20.95,5.65a7.71,7.71,0,0,0-4-14.89l12.69-3.41a7.75,7.75,0,0,0,3.54-2.1,42.4,42.4,0,0,0-19.95-.13,6.77,6.77,0,0,1-2.51,11.81l-10.79,2.91v0a6.78,6.78,0,0,1,3.16,13.19l18.45-5a6.79,6.79,0,0,1,3.54,13.11l-9.71,2.61a6.79,6.79,0,1,1,3.53,13.11l-10.68,2.88a6.79,6.79,0,1,1,3.53,13.11L598,517a6.79,6.79,0,1,1,3.53,13.11,6.8,6.8,0,0,1,8.32,4.78h0c.57-.13,1.15-.26,1.72-.42a42.88,42.88,0,0,0,11.64-5.08,8.14,8.14,0,0,0-1,.19A7.69,7.69,0,0,0,624.09,528.82Z"/><path class="cls-5" d="M598.83,474.61l-18.25,4.92a6.79,6.79,0,1,0-3.53-13.11l11-2.95a6.93,6.93,0,0,0,5.12-7.83,6.78,6.78,0,0,0-2.39-4h0c-.47.11-.94.21-1.41.34a42.72,42.72,0,0,0-31.14,47.69,41.56,41.56,0,0,0,1,4.71,42.75,42.75,0,0,0,50.64,30.58s0,0,0,0A6.79,6.79,0,0,0,602,530a0,0,0,0,1,0,0,6.78,6.78,0,0,0,4.19-8.45,6.92,6.92,0,0,0-8.44-4.44l-8.53,2.3a6.79,6.79,0,1,0-3.53-13.11l10.47-2.82a6.93,6.93,0,0,0,5.07-8.08,6.79,6.79,0,0,0-8.39-5.09l9.71-2.61a6.81,6.81,0,0,0,4.7-8.62A6.94,6.94,0,0,0,598.83,474.61Z"/><circle class="cls-22" cx="593.01" cy="539.52" r="9.46"/><circle class="cls-22" cx="607.5" cy="536.18" r="3.68"/><circle class="cls-22" cx="600.44" cy="549.93" r="8.41"/><g class="cls-23"><circle class="cls-22" cx="585.57" cy="539.52" r="9.46"/><circle class="cls-22" cx="600.07" cy="536.18" r="3.68"/><circle class="cls-22" cx="593.01" cy="549.93" r="8.41"/></g><path class="cls-2" d="M656,503.07a10.53,10.53,0,0,0,0-14.92h0a10.53,10.53,0,0,0-14.92,0l-18.66,18.66h0a10.56,10.56,0,0,1,14.92,14.92h0Z"/><path class="cls-8" d="M622.16,507.07A10.56,10.56,0,0,0,637.09,522l.26-.27-14.92-14.92Z"/><path class="cls-8" d="M656.61,480.26h0a1.43,1.43,0,0,1,1.43,1.43v13.14a0,0,0,0,1,0,0h-2.85a0,0,0,0,1,0,0V481.69A1.43,1.43,0,0,1,656.61,480.26Z" transform="translate(537.07 -321.49) rotate(45)"/><path class="cls-2" d="M629.24,530.29a5.52,5.52,0,0,0-7.8,7.8l.14.14,7.8-7.8Z"/><path class="cls-2" d="M633.68,530.29a5.52,5.52,0,0,1,7.8,7.8l-.14.14-7.79-7.8Z"/><circle class="cls-3" cx="631.38" cy="537.16" r="3.29"/><path class="cls-2" d="M613.87,514.92a5.52,5.52,0,0,1-7.8,7.8l-.14-.14,7.8-7.8A1.85,1.85,0,0,0,613.87,514.92Z"/><path class="cls-2" d="M613.87,510.48a5.52,5.52,0,0,0-7.8-7.8l-.14.14,7.8,7.79Z"/><circle class="cls-3" cx="606.99" cy="512.78" r="3.29"/><path class="cls-24" d="M659.38,587.22V570.49H550v72.7a36.68,36.68,0,0,0,36.68,36.68h36A36.65,36.65,0,0,0,653.56,663c1.25.12,2.53.19,3.82.19a38,38,0,0,0,2-76Zm-2.26,68.65a36.5,36.5,0,0,0,2.26-12.68V595.06a31.35,31.35,0,0,1-2.26,60.81Z"/><circle class="cls-25" cx="599.69" cy="615.51" r="18.34"/><circle class="cls-25" cx="621.03" cy="634.19" r="6.34"/><path class="cls-4" d="M1484,596h0Z"/></g></g></svg>