<svg xmlns="http://www.w3.org/2000/svg" viewBox="0 0 1919 929"><defs><style>.cls-1,.cls-29,.cls-6{fill:#fff;}.cls-1,.cls-19,.cls-27{opacity:0.2;}.cls-2{fill:#051b26;}.cls-3,.cls-7{fill:#b60061;}.cls-3{opacity:0.9;}.cls-4{fill:#c5502e;}.cls-5{fill:#1b89cc;}.cls-8{fill:#3a9fa3;}.cls-9{fill:#44cdf2;}.cls-10,.cls-27{fill:#19090c;}.cls-11{fill:#cd8a66;}.cls-12{fill:#b77358;}.cls-13{fill:#fef6e6;}.cls-14{fill:#d4145a;}.cls-15{fill:#0e2634;}.cls-16{fill:#12303f;}.cls-17{fill:#36bbea;}.cls-18{opacity:0.15;}.cls-20{fill:#c90073;}.cls-21{fill:#ed1e79;}.cls-22{fill:#bf006d;}.cls-23{fill:#f2f2f2;}.cls-24{opacity:0.05;}.cls-25{fill:#29abe2;}.cls-26{fill:#2e3335;}.cls-28,.cls-29{opacity:0.4;}</style></defs><title>bg-anima_4</title><g id="Camada_2" data-name="Camada 2"><g id="Prancheta_I" data-name="Prancheta I"><polygon class="cls-1" points="787.28 927.97 1810 927.97 1294 407.82 787.28 927.97"/><path class="cls-2" d="M1919,928v-5.12a41.73,41.73,0,0,1-3.54,5.12Z"/><line class="cls-3" x1="787.28" y1="927.97" x2="729.54" y2="927.97"/><path class="cls-2" d="M1350.78,295.71a39.26,39.26,0,0,0-56.56,0L732.07,872.76A41.85,41.85,0,0,0,729.54,928h57.74L1294,407.82,1810,928h105.46a41.73,41.73,0,0,0,3.54-5.12v-42.1a40.92,40.92,0,0,0-6.07-8Z"/><path class="cls-3" d="M1350.78,295.71a39.26,39.26,0,0,0-56.56,0L732.07,872.76C717.34,887.88,716,912.87,729,929l58.28-1L1294,407.82,1810,928h105.46a41.73,41.73,0,0,0,3.54-5.12v-42.1a40.92,40.92,0,0,0-6.07-8Z"/><polygon class="cls-1" points="343.01 49.28 3 398.3 3 927.97 159.76 927.97 683.38 390.46 343.01 49.28"/><polygon class="cls-2" points="3 0 3 318.41 313.18 0 3 0"/><path class="cls-2" d="M494.28,1,794,308.64a34.7,34.7,0,0,1,0,48.17L236.59,929H728.54a41.85,41.85,0,0,1,2.53-55.21l562.15-577a39.26,39.26,0,0,1,56.56,0l562.15,577.05a40.92,40.92,0,0,1,6.07,8V1Z"/><polygon class="cls-4" points="158.76 929 236.59 929 237.59 927.97 159.76 927.97 158.76 929"/><polygon class="cls-4" points="0 321.49 0 401.38 3 398.3 3 318.41 0 321.49"/><path class="cls-4" d="M795,307.64,495.28,0H313.18L3,318.41V398.3l340-349,336,344.9L159.76,928h77.83L795,355.81A34.7,34.7,0,0,0,795,307.64Z"/><rect class="cls-2" x="2" y="904" width="1917" height="25"/><rect class="cls-5" x="817.07" y="582.99" width="29.58" height="80.41"/><rect class="cls-6" x="822.34" y="589.36" width="19.05" height="44.13"/><circle class="cls-6" cx="831.86" cy="646.48" r="4.66"/><rect class="cls-7" x="788.14" y="582.99" width="29.58" height="80.41"/><rect class="cls-6" x="793.41" y="589.36" width="19.05" height="44.13"/><circle class="cls-6" cx="802.93" cy="646.48" r="4.66"/><rect class="cls-4" x="874.93" y="582.99" width="29.58" height="80.41"/><rect class="cls-6" x="880.2" y="589.36" width="19.05" height="44.13"/><circle class="cls-6" cx="889.72" cy="646.48" r="4.66"/><rect class="cls-8" x="846" y="582.99" width="29.58" height="80.41"/><rect class="cls-6" x="851.27" y="589.36" width="19.05" height="44.13"/><circle class="cls-6" cx="860.79" cy="646.48" r="4.66"/><rect class="cls-9" x="701.36" y="582.99" width="29.58" height="80.41"/><rect class="cls-6" x="706.62" y="589.36" width="19.05" height="44.13"/><circle class="cls-6" cx="716.15" cy="646.48" r="4.66"/><rect class="cls-10" x="672.43" y="582.99" width="29.58" height="80.41"/><rect class="cls-6" x="677.7" y="589.36" width="19.05" height="44.13"/><circle class="cls-6" cx="687.22" cy="646.48" r="4.66"/><rect class="cls-7" x="759.21" y="582.99" width="29.58" height="80.41"/><rect class="cls-6" x="764.48" y="589.36" width="19.05" height="44.13"/><circle class="cls-6" cx="774" cy="646.48" r="4.66"/><rect class="cls-4" x="730.28" y="582.99" width="29.58" height="80.41"/><rect class="cls-6" x="735.55" y="589.36" width="19.05" height="44.13"/><circle class="cls-6" cx="745.08" cy="646.48" r="4.66"/><rect class="cls-5" x="557.45" y="663.4" width="777.15" height="25.5"/><path class="cls-5" d="M1098.45,823.35h0c-7.84,8.85-20.63,9.45-28.56,1.33l-89.48-91.57c-7.93-8.11-8-21.87-.16-30.73h0c7.85-8.85,20.63-9.45,28.57-1.34l89.47,91.57C1106.23,800.73,1106.3,814.49,1098.45,823.35Z"/><path class="cls-11" d="M958.57,884.19h0c-5.62-11.34-1.72-25.48,8.71-31.59l107.84-63.18c10.43-6.11,23.44-1.87,29.07,9.46h0c5.62,11.34,1.72,25.48-8.71,31.59L987.64,893.65C977.21,899.76,964.2,895.53,958.57,884.19Z"/><path class="cls-5" d="M782.34,823.35h0c7.84,8.85,20.63,9.45,28.56,1.33l89.48-91.57c7.93-8.11,8-21.87.16-30.73h0c-7.85-8.85-20.63-9.45-28.57-1.34L782.5,792.61C774.56,800.73,774.49,814.49,782.34,823.35Z"/><path class="cls-11" d="M921.87,884.19h0c5.63-11.34,1.73-25.48-8.7-31.59L805.33,789.42c-10.43-6.11-23.45-1.87-29.07,9.46h0c-5.62,11.34-1.72,25.48,8.71,31.59l107.84,63.18C903.24,899.76,916.25,895.53,921.87,884.19Z"/><ellipse class="cls-10" cx="940.23" cy="624.48" rx="56.93" ry="59.11"/><circle class="cls-11" cx="991.41" cy="655.35" r="16.42"/><circle class="cls-12" cx="991.41" cy="655.35" r="8.54"/><circle class="cls-11" cx="888.07" cy="655.35" r="16.42"/><circle class="cls-12" cx="888.07" cy="655.35" r="8.54"/><path class="cls-11" d="M940.07,571.93c-28.36,0-51.36,29.41-51.36,65.68V681c0,36.28,23,65.69,51.36,65.69s51.36-29.41,51.36-65.69V637.61C991.43,601.34,968.44,571.93,940.07,571.93Z"/><path class="cls-10" d="M958.54,718.92a26.18,26.18,0,0,0,7.39-18.25,25.44,25.44,0,0,0-.14-2.63H913.54a25.44,25.44,0,0,0-.15,2.63,26.18,26.18,0,0,0,7.39,18.25,26.9,26.9,0,0,1,37.76,0Z"/><path class="cls-13" d="M954,687.53h-28.6a11.79,11.79,0,0,0-11.81,10.4V698h52.25v-.11A11.81,11.81,0,0,0,954,687.53Z"/><path class="cls-14" d="M939.66,726.94a26.18,26.18,0,0,0,18.88-8,26.9,26.9,0,0,0-37.76,0A26.2,26.2,0,0,0,939.66,726.94Z"/><circle class="cls-10" cx="965.03" cy="642.87" r="6.57"/><circle class="cls-10" cx="913.8" cy="642.87" r="6.57"/><circle class="cls-13" cx="965.03" cy="646.81" r="3.94"/><circle class="cls-13" cx="913.54" cy="646.81" r="3.94"/><rect class="cls-12" x="933.5" y="644.18" width="13.14" height="32.84" rx="6.57" ry="6.57"/><circle class="cls-10" cx="955.84" cy="582.44" r="10.51"/><circle class="cls-10" cx="940.07" cy="583.75" r="15.76"/><circle class="cls-10" cx="920.52" cy="582.44" r="11.67"/><circle class="cls-10" cx="904.76" cy="590.32" r="9.04"/><circle class="cls-10" cx="894.25" cy="598.2" r="5.1"/><circle class="cls-10" cx="983.58" cy="598.2" r="5.1"/><circle class="cls-10" cx="972.41" cy="588.35" r="11.01"/><rect class="cls-10" x="894.22" y="616.93" width="25.99" height="5.91" rx="2.95" ry="2.95" transform="translate(-96.01 171.73) rotate(-10.27)"/><rect class="cls-10" x="967.47" y="606.89" width="5.91" height="25.99" rx="2.95" ry="2.95" transform="translate(187.41 1464.2) rotate(-79.73)"/><path class="cls-10" d="M972.08,625h-9.5a19.25,19.25,0,0,0-19.21,18.69h-7.25A19.25,19.25,0,0,0,916.9,625h-9.49a19.23,19.23,0,0,0,0,38.46h9.49a19.25,19.25,0,0,0,18.92-15.82h7.84a19.26,19.26,0,0,0,18.92,15.82h9.5a19.23,19.23,0,0,0,0-38.46ZM916.9,659.47h-9.49a15.29,15.29,0,1,1,0-30.58h9.49a15.29,15.29,0,1,1,0,30.58Zm55.18,0h-9.5a15.29,15.29,0,0,1,0-30.58h9.5a15.29,15.29,0,0,1,0,30.58Z"/><rect class="cls-5" x="615.79" y="891.53" width="655.07" height="25.71" rx="12.85" ry="12.85"/><rect class="cls-15" x="813.29" y="705.38" width="252.4" height="177.53" rx="13.92" ry="13.92"/><rect class="cls-16" x="825.22" y="882.26" width="228.66" height="9.61"/><g id="Camada_2-2" data-name="Camada 2"><g id="Camada_1-2" data-name="Camada 1-2"><path class="cls-6" d="M967.12,778.47a15.86,15.86,0,0,0-15.24-10.53H925.46a18,18,0,0,0-15.22,8.28,1.47,1.47,0,0,0,1.26,2.25h40.38a5.55,5.55,0,0,1,5.19,5.06,5.33,5.33,0,0,1-5.12,5.55H927.07a1.47,1.47,0,0,0-1.47,1.48h0a8.93,8.93,0,0,0,6,8.51,1.47,1.47,0,0,1,1,1.39v16.23a18.66,18.66,0,0,0,2.59,9,19.06,19.06,0,0,0,6,6.6,1.48,1.48,0,0,0,2.32-1.21V801.17a1.47,1.47,0,0,1,1.47-1.48h6.82a16,16,0,0,0,15-10.61,16.17,16.17,0,0,0,1.05-5.55A16.46,16.46,0,0,0,967.12,778.47Z"/></g></g><rect class="cls-8" x="1212.9" y="759.66" width="16.56" height="81.88"/><rect class="cls-9" x="1160.45" y="824.06" width="88.32" height="67.16"/><rect class="cls-17" x="1160.45" y="824.06" width="88.32" height="15.64"/><rect class="cls-7" x="1179.77" y="778.98" width="16.56" height="45.08"/><rect class="cls-4" x="1196.33" y="742.18" width="16.56" height="81.88"/><g class="cls-18"><circle class="cls-14" cx="675.12" cy="754.73" r="46.58"/></g><g class="cls-19"><circle class="cls-14" cx="675.43" cy="753.71" r="38.66"/></g><path class="cls-14" d="M658.24,734l.27-.06v0Z"/><path class="cls-20" d="M671,727.26a5.67,5.67,0,1,1,3,11l15.41-4.16a5.67,5.67,0,0,1,3,11l-8.11,2.18a5.67,5.67,0,1,1,2.95,11l-8.92,2.4a5.67,5.67,0,1,1,3,11l7.3-2a5.67,5.67,0,0,1,5,9.92A31.43,31.43,0,0,0,683,723.2a5.63,5.63,0,0,1-2.6,1.55Z"/><path class="cls-14" d="M691.46,780.46a4.13,4.13,0,0,1,.7-.14l.66-.44A5.69,5.69,0,0,1,691.46,780.46Z"/><polygon class="cls-14" points="682.34 784.36 682.34 784.36 682.34 784.36 682.34 784.36"/><path class="cls-21" d="M693.49,779.43c-.22.16-.45.3-.67.45A4.36,4.36,0,0,0,693.49,779.43Z"/><path class="cls-21" d="M676.22,780.85a5,5,0,1,0-2.6-9.64l-6.42,1.73a5,5,0,1,0-2.6-9.64l7.85-2.11a5,5,0,0,0-2.59-9.64l7.14-1.92a5,5,0,0,0-2.6-9.64l-13.56,3.66a5,5,0,0,0-2.33-9.7,35.33,35.33,0,0,0-3.24,21,36.61,36.61,0,0,0,.82,3.93,35.12,35.12,0,0,0,2.64,6.88,35.58,35.58,0,0,0,7.3,9.77,36,36,0,0,0,13.66,8.06c.87.28,1.75.52,2.65.73A5,5,0,0,0,676.22,780.85Z"/><path class="cls-22" d="M692.82,779.88c.22-.15.45-.29.67-.45a5.67,5.67,0,0,0-5-9.92l-7.3,2a5.67,5.67,0,1,0-3-11l8.92-2.4a5.67,5.67,0,1,0-2.95-11l8.11-2.18a5.67,5.67,0,0,0-3-11L674,738.21a5.67,5.67,0,1,0-3-11l9.33-2.51a5.63,5.63,0,0,0,2.6-1.55,31.33,31.33,0,0,0-14.67-.09,5,5,0,0,1-1.84,8.69l-7.93,2.13v0a5,5,0,0,1,2.33,9.7L674.4,740a5,5,0,0,1,2.6,9.64l-7.14,1.92a5,5,0,0,1,2.59,9.64l-7.85,2.11a5,5,0,1,1,2.6,9.64l6.42-1.73a5,5,0,1,1,2.6,9.64,5,5,0,0,1,6.12,3.51h0c.42-.1.84-.19,1.26-.31a31.35,31.35,0,0,0,8.56-3.73,4.13,4.13,0,0,0-.7.14A5.69,5.69,0,0,0,692.82,779.88Z"/><path class="cls-7" d="M674.25,740l-13.41,3.62a5,5,0,0,0-2.6-9.64l8.06-2.17a5.11,5.11,0,0,0,3.76-5.76,5,5,0,0,0-1.76-3h0l-1,.25a31.4,31.4,0,0,0-22.89,35.06,32.91,32.91,0,0,0,.72,3.47,32.09,32.09,0,0,0,2.32,6.05,31.43,31.43,0,0,0,34.92,16.42s0,0,0,0a5,5,0,0,0-5.72-3.58s0,0,0,0a5,5,0,0,0,3.08-6.22,5.1,5.1,0,0,0-6.21-3.26l-6.27,1.69a5,5,0,1,0-2.6-9.64l7.7-2.07a5.1,5.1,0,0,0,3.73-5.94,5,5,0,0,0-6.17-3.74l7.14-1.92a5,5,0,0,0,3.45-6.34A5.09,5.09,0,0,0,674.25,740Z"/><circle class="cls-23" cx="669.97" cy="787.75" r="6.96"/><circle class="cls-23" cx="680.63" cy="785.29" r="2.71"/><circle class="cls-23" cx="675.43" cy="795.4" r="6.18"/><g class="cls-24"><circle class="cls-23" cx="664.51" cy="787.75" r="6.96"/><circle class="cls-23" cx="675.16" cy="785.29" r="2.71"/><circle class="cls-23" cx="669.97" cy="795.4" r="6.18"/></g><path class="cls-5" d="M716.29,761a7.76,7.76,0,0,0,0-11h0a7.76,7.76,0,0,0-11,0L691.6,763.7h0a7.76,7.76,0,0,1,11,11h0Z"/><path class="cls-9" d="M691.41,763.89a7.76,7.76,0,0,0,11,11l.19-.2-11-11C691.53,763.76,691.47,763.83,691.41,763.89Z"/><path class="cls-9" d="M716.66,744.19h.14a1,1,0,0,1,1,1v9.73a0,0,0,0,1,0,0h-2.1a0,0,0,0,1,0,0v-9.73A1,1,0,0,1,716.66,744.19Z" transform="translate(739.93 -287.27) rotate(45)"/><path class="cls-5" d="M696.61,781a4.06,4.06,0,0,0-5.74,5.73l.11.1,5.73-5.73Z"/><path class="cls-5" d="M699.87,781a4.06,4.06,0,0,1,5.74,5.73l-.11.1-5.73-5.73Z"/><circle class="cls-25" cx="698.18" cy="786.01" r="2.42"/><path class="cls-5" d="M685.3,769.66a4.06,4.06,0,0,1-5.73,5.74l-.1-.11,5.73-5.73Z"/><path class="cls-5" d="M685.3,766.4a4.06,4.06,0,0,0-5.73-5.74l-.1.11,5.73,5.73Z"/><circle class="cls-25" cx="680.25" cy="768.09" r="2.42"/><path class="cls-26" d="M718.76,822.82v-12.3H638.35V864a27,27,0,0,0,27,27H691.8a26.91,26.91,0,0,0,22.68-12.4,26.18,26.18,0,0,0,2.81.14,27.94,27.94,0,0,0,1.47-55.85Zm-1.65,50.47a27,27,0,0,0,1.65-9.32V828.58a23.05,23.05,0,0,1-1.65,44.71Z"/><circle class="cls-27" cx="674.88" cy="843.62" r="13.48"/><circle class="cls-27" cx="690.57" cy="857.35" r="4.66"/><path class="cls-6" d="M1502.43,769.8h0Z"/><g class="cls-28"><circle class="cls-6" cx="567" cy="151" r="7"/><rect class="cls-6" x="498.48" y="168.82" width="94.05" height="6.36" rx="3" ry="3" transform="translate(281.4 -335.35) rotate(45)"/></g><circle class="cls-29" cx="502" cy="130" r="3"/><g class="cls-28"><circle class="cls-6" cx="1685" cy="704" r="7"/><rect class="cls-6" x="1593.5" y="721.82" width="140" height="6.36" rx="3" ry="3" transform="translate(999.88 -963.92) rotate(45)"/><circle class="cls-29" cx="1620" cy="683" r="3"/></g></g></g></svg>