<svg xmlns="http://www.w3.org/2000/svg" viewBox="0 0 1920 531"><defs><style>.cls-1{fill:#1b89cc;}.cls-2{opacity:0.1;}.cls-3{fill:#3a9fa3;}.cls-4{fill:#44cdf2;}.cls-5{fill:#36bbea;}.cls-6{fill:#b60061;}.cls-7{fill:#c5502e;}.cls-8{fill:#fff;}.cls-9{fill:#051b26;}.cls-10{fill:#f2f2f2;}.cls-11{opacity:0.05;}</style></defs><title>bg-f</title><g id="Camada_2" data-name="Camada 2"><g id="Prancheta_I" data-name="Prancheta I"><rect class="cls-1" width="1920" height="531"/><g class="cls-2"><rect class="cls-3" x="213.03" y="255.92" width="32.45" height="160.44" transform="translate(304.83 -63.65) rotate(45)"/><rect class="cls-4" x="40.75" y="326.43" width="173.06" height="131.6" transform="translate(314.62 24.88) rotate(45)"/><rect class="cls-5" x="76.44" y="341.21" width="173.06" height="30.65" transform="translate(299.84 -10.81) rotate(45)"/><rect class="cls-6" x="165.86" y="247.36" width="32.45" height="88.33" transform="translate(259.47 -43.37) rotate(45)"/><rect class="cls-7" x="214.3" y="208.75" width="32.45" height="160.44" transform="translate(271.85 -78.37) rotate(45)"/><rect class="cls-8" x="201.31" y="401.32" width="21.22" height="2.39" rx="0.54" ry="0.54" transform="translate(346.69 -31.96) rotate(45)"/><rect class="cls-8" x="198.12" y="404.51" width="21.22" height="2.39" rx="0.54" ry="0.54" transform="translate(348.01 -28.77) rotate(45)"/><rect class="cls-8" x="194.93" y="407.7" width="21.22" height="2.39" rx="0.54" ry="0.54" transform="translate(349.33 -25.58) rotate(45)"/><rect class="cls-8" x="104.89" y="302.7" width="18.86" height="18.86" rx="4.25" ry="4.25" transform="translate(254.19 10.58) rotate(45)"/><rect class="cls-9" x="48.49" y="362.55" width="169.18" height="49.22" transform="translate(312.74 19.3) rotate(45)"/><circle class="cls-6" cx="163.61" cy="415.19" r="14.59"/><rect class="cls-7" x="80.32" y="359.08" width="76.34" height="22.4" rx="5.05" ry="5.05" transform="translate(296.53 24.67) rotate(45)"/></g><g class="cls-2"><circle class="cls-10" cx="1667.7" cy="441.26" r="30.97"/><circle class="cls-10" cx="1620.25" cy="430.31" r="12.04"/><circle class="cls-10" cx="1643.37" cy="475.32" r="27.53"/><g class="cls-11"><circle class="cls-10" cx="1692.03" cy="441.26" r="30.97"/><circle class="cls-10" cx="1644.59" cy="430.31" r="12.04"/><circle class="cls-10" cx="1667.7" cy="475.32" r="27.53"/></g><path class="cls-1" d="M1461.47,322a34.55,34.55,0,0,1,0-48.86h0a34.55,34.55,0,0,1,48.86,0l61.08,61.08h0A34.55,34.55,0,0,0,1522.56,383v0Z"/><path class="cls-7" d="M1572.27,335a34.56,34.56,0,0,1-48.87,48.87l-.84-.88,48.83-48.83Z"/><path class="cls-6" d="M1454.85,247.29h9.33a0,0,0,0,1,0,0v46.26a1.43,1.43,0,0,1-1.43,1.43h-6.48a1.43,1.43,0,0,1-1.43-1.43V247.29a0,0,0,0,1,0,0Z" transform="translate(2683.27 -569.18) rotate(135)"/><path class="cls-3" d="M1549.1,411.05a18.05,18.05,0,0,1,25.53,25.53l-.45.44-25.52-25.51Z"/><path class="cls-6" d="M1534.57,411.05A18.05,18.05,0,1,0,1509,436.58c.14.15.3.3.45.44L1535,411.51C1534.86,411.35,1534.72,411.2,1534.57,411.05Z"/><circle class="cls-7" cx="1542.12" cy="433.52" r="10.76"/><path class="cls-3" d="M1599.43,360.72A18.05,18.05,0,0,0,1625,386.25l.44-.45-25.51-25.51Z"/><path class="cls-6" d="M1599.43,346.19A18.05,18.05,0,0,1,1625,320.66l.44.45-25.51,25.52Z"/><circle class="cls-7" cx="1621.92" cy="353.71" r="10.76"/></g></g></g></svg>