<svg xmlns="http://www.w3.org/2000/svg" viewBox="0 0 1788.89 1345.38"><defs><style>.cls-1{fill:#f2f2f2;}.cls-2{opacity:0.05;}.cls-3{fill:#1b89cc;}.cls-4{fill:#c5502e;}.cls-5{fill:#b60061;}.cls-6{fill:#3a9fa3;}.cls-7{opacity:0.15;}.cls-8{fill:#d4145a;}.cls-9{opacity:0.2;}.cls-10{fill:#c90073;}.cls-11{fill:#ed1e79;}.cls-12{fill:#bf006d;}</style></defs><title>bg-portfolio</title><g id="Camada_2" data-name="Camada 2"><g id="Prancheta_I" data-name="Prancheta I"><circle class="cls-1" cx="1580.32" cy="1149.85" r="117.32"/><circle class="cls-1" cx="1482.56" cy="993.42" r="45.62"/><circle class="cls-1" cx="1423.9" cy="1175.92" r="104.28"/><g class="cls-2"><circle class="cls-1" cx="1645.5" cy="1215.02" r="117.32"/><circle class="cls-1" cx="1547.73" cy="1058.6" r="45.62"/><circle class="cls-1" cx="1489.07" cy="1241.09" r="104.28"/></g><path class="cls-3" d="M1347.47,277.84A130.89,130.89,0,0,1,1478.36,147h0a130.89,130.89,0,0,1,130.89,130.89V605.06h-.09a130.88,130.88,0,0,0-261.6,0h-.09Z"/><path class="cls-4" d="M1609.25,609.64a130.89,130.89,0,0,1-261.78,0c0-1.53,0-3.06.09-4.58h261.6C1609.21,606.58,1609.25,608.11,1609.25,609.64Z"/><path class="cls-5" d="M1460.69,46.16H1496a0,0,0,0,1,0,0v179.2a1.43,1.43,0,0,1-1.43,1.43h-32.49a1.43,1.43,0,0,1-1.43-1.43V46.16A0,0,0,0,1,1460.69,46.16Z" transform="translate(2956.72 272.95) rotate(-180)"/><path class="cls-6" d="M1343.54,751.25a68.39,68.39,0,1,1,0,136.78c-.8,0-1.6,0-2.39,0V751.3C1341.94,751.27,1342.74,751.25,1343.54,751.25Z"/><path class="cls-5" d="M1304.6,712.31a68.39,68.39,0,1,0-136.77,0c0,.8,0,1.6,0,2.4h136.69C1304.59,713.91,1304.6,713.11,1304.6,712.31Z"/><circle class="cls-4" cx="1264.66" cy="792.71" r="40.77"/><path class="cls-6" d="M1613.17,751.25a68.39,68.39,0,0,0,0,136.78c.81,0,1.6,0,2.4,0V751.3C1614.77,751.27,1614,751.25,1613.17,751.25Z"/><path class="cls-5" d="M1652.11,712.31a68.39,68.39,0,0,1,136.78,0c0,.8,0,1.6,0,2.4H1652.16C1652.13,713.91,1652.11,713.11,1652.11,712.31Z"/><circle class="cls-4" cx="1692.21" cy="792.71" r="40.77"/><g class="cls-7"><circle class="cls-8" cx="458.77" cy="479.77" r="326.91"/></g><g class="cls-9"><circle class="cls-8" cx="460.94" cy="472.6" r="271.37"/></g><g class="cls-7"><circle class="cls-8" cx="475.77" cy="475.77" r="475.65"/></g><g class="cls-9"><circle class="cls-8" cx="478.93" cy="465.35" r="394.84"/></g><path class="cls-8" d="M340.31,334.34c.63-.17,1.26-.27,1.89-.41l.06-.11Z"/><path class="cls-10" d="M430.11,287a39.78,39.78,0,1,1,20.7,76.82l108.12-29.14a39.78,39.78,0,1,1,20.7,76.82l-56.9,15.34a39.78,39.78,0,1,1,20.7,76.82l-62.6,16.87a39.78,39.78,0,1,1,20.71,76.82l51.21-13.8a39.78,39.78,0,0,1,35,69.65c73.74-51.79,111-145.92,86.2-238a220.4,220.4,0,0,0-160.12-156.7,39.57,39.57,0,0,1-18.26,10.84Z"/><path class="cls-8" d="M573.45,660.35a39,39,0,0,1,4.93-1c1.58-1,3.11-2,4.65-3.06A39.61,39.61,0,0,1,573.45,660.35Z"/><polygon class="cls-8" points="509.44 687.75 509.44 687.75 509.44 687.75 509.44 687.75"/><path class="cls-11" d="M587.73,653.18c-1.54,1.08-3.13,2.1-4.7,3.14A39.63,39.63,0,0,0,587.73,653.18Z"/><path class="cls-11" d="M466.52,663.09a35,35,0,1,0-18.23-67.64L403.2,607.6A35,35,0,1,0,385,540l55.12-14.85a35,35,0,0,0-18.23-67.64L472,444a35,35,0,1,0-18.23-67.64L358.54,402a35,35,0,0,0-16.34-68.05A248.21,248.21,0,0,0,319.46,481.6a250.28,250.28,0,0,0,24.26,75.86A248.85,248.85,0,0,0,395,626a251.72,251.72,0,0,0,95.88,56.56c6.11,2,12.31,3.66,18.58,5.15A35,35,0,0,0,466.52,663.09Z"/><path class="cls-12" d="M583,656.32c1.57-1,3.16-2.06,4.7-3.14a39.78,39.78,0,0,0-35-69.65l-51.21,13.8a39.78,39.78,0,1,0-20.71-76.82l62.6-16.87a39.78,39.78,0,1,0-20.7-76.82l56.9-15.34a39.78,39.78,0,1,0-20.7-76.82L450.81,363.8A39.78,39.78,0,1,0,430.11,287l65.44-17.63a39.57,39.57,0,0,0,18.26-10.84,219.49,219.49,0,0,0-102.93-.67,35,35,0,0,1-12.95,61l-55.67,15-.06.11A35,35,0,0,1,358.54,402l95.19-25.65A35,35,0,1,1,472,444l-50.1,13.5a35,35,0,0,1,18.23,67.64L385,540A35,35,0,1,1,403.2,607.6l45.09-12.15a35,35,0,1,1,18.23,67.64,35,35,0,0,1,42.92,24.66h0c3-.67,5.94-1.36,8.9-2.16a220.15,220.15,0,0,0,60-26.21,39,39,0,0,0-4.93,1A39.61,39.61,0,0,0,583,656.32Z"/><path class="cls-5" d="M452.67,376.61,358.54,402a35,35,0,0,0-18.23-67.64l56.55-15.24c17.79-4.79,29.74-22.26,26.42-40.37a34.86,34.86,0,0,0-12.35-20.85.14.14,0,0,0-.11,0c-2.42.56-4.85,1.11-7.27,1.76A220.56,220.56,0,0,0,509.31,687.78a.12.12,0,0,0,.1-.15,35,35,0,0,0-40.18-25.16.11.11,0,0,1-.06-.21,35,35,0,0,0,21.61-43.63c-5.72-18-25.28-27.82-43.55-22.9l-44,11.87A35,35,0,1,0,385,540L439,525.39c18.26-4.92,30.25-23.21,26.14-41.68a35,35,0,0,0-43.31-26.24L472,444a35,35,0,0,0,24.26-44.46C490.5,381.48,470.94,371.69,452.67,376.61Z"/></g></g></svg>